<?xml version="1.0" standalone="no"?>
<!DOCTYPE svg PUBLIC "-//W3C//DTD SVG 20010904//EN"
 "http://www.w3.org/TR/2001/REC-SVG-20010904/DTD/svg10.dtd">
<svg version="1.0" xmlns="http://www.w3.org/2000/svg"
 width="1942.000000pt" height="2717.000000pt" viewBox="0 0 1942.000000 2717.000000"
 preserveAspectRatio="xMidYMid meet">

<g transform="translate(0.000000,2717.000000) scale(0.100000,-0.100000)"
fill="#000000" stroke="none">
<path d="M0 26930 c0 -191 3 -240 13 -240 7 0 27 -15 44 -32 29 -31 216 -391
454 -871 170 -343 470 -940 584 -1162 56 -110 115 -235 130 -278 17 -46 37
-84 49 -92 12 -8 57 -20 101 -29 44 -8 102 -24 128 -35 66 -28 163 -19 229 21
l48 30 37 -23 c21 -12 40 -24 42 -26 3 -2 -3 -9 -13 -16 -10 -7 -17 -22 -14
-33 4 -21 65 -56 86 -49 7 3 36 0 63 -6 40 -9 57 -8 76 2 28 15 88 16 106 1 7
-5 29 -12 50 -16 20 -3 52 -9 71 -12 28 -5 37 -2 48 15 15 25 36 27 44 6 5
-11 16 -13 46 -9 36 6 43 4 66 -23 21 -23 42 -32 92 -42 36 -7 69 -17 75 -22
5 -5 33 -9 62 -9 29 0 61 -4 71 -9 9 -5 25 -12 35 -15 9 -3 17 -14 17 -24 0
-23 25 -46 40 -37 6 4 8 20 5 38 -4 18 2 86 12 152 15 98 18 170 15 385 -1
146 -6 321 -12 390 -5 69 -12 249 -16 400 -8 344 -16 325 138 325 56 0 195 -4
308 -9 113 -4 252 -9 310 -11 371 -10 596 -18 601 -21 6 -3 392 -17 804 -29
99 -3 286 -10 415 -16 129 -6 271 -12 315 -14 44 -2 161 -7 260 -11 209 -10
419 -9 488 1 69 10 80 31 84 163 2 59 8 233 13 387 6 154 13 395 16 535 3 140
9 305 12 365 4 61 6 140 4 178 l-4 67 -3324 0 -3324 0 0 -240z"/>
<path d="M0 24754 c0 -14 4 -23 10 -19 13 8 13 45 0 45 -5 0 -10 -12 -10 -26z"/>
<path d="M524 23938 c-3 -4 3 -8 13 -8 11 0 23 -4 29 -9 5 -6 28 -13 52 -17
38 -6 42 -5 42 15 0 15 -7 22 -22 23 -67 5 -109 4 -114 -4z"/>
<path d="M0 21510 c0 -2044 2 -2360 14 -2360 28 0 71 21 94 46 26 28 44 30 66
8 20 -19 20 -24 0 -53 -24 -33 -14 -102 22 -148 25 -32 29 -49 33 -112 8 -163
-50 -214 -147 -127 -20 18 -47 36 -59 40 l-23 7 0 -885 c0 -772 2 -886 15
-886 8 0 30 -14 49 -30 19 -17 56 -38 83 -47 39 -13 68 -36 156 -127 151 -155
185 -220 151 -291 -18 -38 -74 -70 -109 -61 -12 3 -45 21 -73 39 -29 20 -68
36 -94 40 -24 3 -73 20 -109 37 l-64 30 -3 -2001 c-2 -1897 -1 -2002 15 -2015
17 -13 17 -15 0 -25 -16 -9 -17 -38 -17 -375 l0 -364 28 6 c15 3 52 12 82 19
30 7 107 21 170 30 63 9 123 21 132 26 10 5 24 9 33 9 8 0 38 11 67 24 126 56
290 101 473 127 94 14 358 70 377 80 9 5 75 14 145 19 70 6 159 18 196 27 l69
16 25 56 c42 94 41 93 162 85 71 -4 126 -2 166 6 99 21 177 31 225 31 25 -1
52 4 60 9 24 16 -17 42 -52 34 -22 -4 -28 -2 -28 11 0 8 8 18 18 21 9 3 26 10
37 14 41 17 92 28 158 34 75 7 192 33 272 60 45 16 172 51 435 122 47 12 123
38 170 57 47 18 102 37 122 41 21 4 79 22 130 42 104 38 330 87 386 82 35 -3
37 -5 34 -34 -2 -26 3 -36 29 -55 60 -46 99 -87 99 -106 0 -11 -13 -37 -30
-59 -59 -78 -28 -108 60 -58 73 42 149 65 172 53 16 -9 19 -17 14 -42 -19 -90
-19 -93 8 -123 l26 -29 26 29 c22 25 25 36 20 72 -5 37 -2 48 20 74 14 16 34
30 45 30 25 0 39 30 46 96 7 65 30 73 56 19 22 -47 48 -45 96 6 35 38 41 41
77 36 141 -20 141 -20 153 1 7 14 7 29 -1 53 -6 19 -12 66 -14 104 -5 138 -19
203 -53 250 -42 59 -71 126 -65 151 7 26 -31 80 -86 122 -25 19 -46 38 -48 42
-4 10 185 134 227 148 19 7 57 12 85 12 28 1 80 7 116 15 38 8 121 14 197 15
105 0 145 4 190 20 62 21 101 22 348 15 174 -5 259 -13 297 -27 20 -8 41 -5
93 13 49 16 72 20 84 12 23 -15 26 -42 4 -49 -65 -21 -91 -50 -73 -84 12 -22
49 -26 82 -9 16 8 31 8 60 -2 56 -18 63 -31 40 -76 -12 -24 -18 -50 -15 -70 4
-26 0 -34 -22 -49 -26 -17 -29 -17 -57 -1 -39 22 -50 21 -75 -5 -39 -43 -39
-66 0 -107 42 -44 67 -91 67 -127 0 -47 37 -111 72 -123 17 -6 33 -11 35 -11
2 0 10 18 19 39 19 47 36 56 73 37 47 -25 55 -41 35 -72 -18 -26 -18 -27 7
-45 46 -36 49 -40 49 -67 0 -15 9 -55 19 -88 11 -34 17 -71 14 -83 -3 -12 -1
-27 5 -34 5 -6 15 -28 21 -49 7 -20 18 -39 26 -42 8 -3 15 -16 15 -30 0 -13
14 -53 31 -88 51 -103 52 -106 46 -121 -8 -21 31 -95 54 -102 10 -4 19 -14 19
-24 0 -25 20 -41 52 -41 43 0 35 -27 -11 -40 -21 -5 -44 -17 -51 -24 -6 -8
-25 -18 -41 -21 -38 -9 -46 -28 -25 -61 22 -33 53 -44 155 -54 65 -7 91 -6
117 5 35 14 324 18 324 4 0 -9 -82 -77 -149 -122 -53 -37 -54 -37 -155 -37
-108 0 -117 -3 -135 -37 -8 -17 -21 -23 -44 -23 -18 0 -38 -4 -45 -9 -37 -23
147 -23 190 0 10 6 23 7 28 4 5 -3 12 1 17 8 4 8 19 18 33 22 15 4 -2 -12 -39
-40 -38 -28 -122 -72 -212 -110 -82 -35 -161 -73 -176 -83 -45 -32 -195 -128
-228 -146 -16 -9 -66 -43 -110 -76 -171 -127 -362 -256 -490 -330 -193 -112
-310 -200 -405 -308 -82 -93 -110 -135 -172 -257 -62 -124 -119 -212 -196
-307 -150 -183 -263 -532 -362 -1108 -55 -321 -77 -630 -80 -1117 -2 -271 -13
-350 -90 -663 -22 -91 -46 -187 -52 -215 -6 -27 -19 -85 -30 -129 -27 -111
-84 -372 -123 -566 -19 -91 -48 -228 -65 -305 -43 -194 -68 -379 -90 -665 -11
-134 -24 -258 -29 -275 -6 -16 -13 -70 -16 -120 -4 -49 -15 -121 -25 -160 -11
-38 -24 -117 -30 -174 -10 -106 -32 -208 -76 -360 -37 -129 -21 -156 163 -270
121 -74 175 -99 332 -151 80 -27 150 -55 155 -63 6 -9 0 -53 -17 -123 -36
-154 -42 -192 -17 -124 11 30 20 62 20 71 0 9 9 24 20 34 18 16 20 16 20 2 0
-10 5 -17 10 -17 6 0 10 -8 10 -17 1 -17 1 -17 11 -1 12 22 32 23 49 3 7 -9
25 -15 39 -14 14 1 37 1 50 1 19 -2 21 -5 12 -16 -10 -12 -4 -17 36 -28 l48
-14 5 30 5 30 29 -27 c16 -15 33 -27 37 -27 5 0 9 -5 9 -10 0 -6 8 -20 19 -31
17 -19 39 -25 101 -29 l25 -2 -25 -8 c-24 -8 -24 -8 -2 -9 27 -1 30 -31 3 -31
-11 0 -22 -4 -25 -8 -7 -12 9 -33 24 -30 14 3 33 -49 25 -69 -2 -7 0 -13 5
-13 6 0 10 6 10 13 1 6 10 1 20 -12 27 -31 26 -78 0 -86 -34 -11 -22 -25 20
-25 37 0 39 -2 46 -35 8 -45 1 -62 -28 -68 l-23 -4 23 -2 c13 0 22 -7 21 -13
-1 -7 -1 -30 0 -50 l1 -38 55 0 55 0 0 -40 c0 -44 -25 -58 -33 -18 -3 20 -5
21 -11 6 -5 -11 -2 -23 9 -35 14 -14 15 -18 4 -21 -8 -3 -26 -14 -41 -24 l-28
-19 36 -35 c37 -35 54 -42 54 -24 0 6 -4 10 -10 10 -5 0 -10 5 -10 11 0 8 13
9 40 5 31 -5 42 -3 46 9 8 19 34 20 34 0 0 -8 7 -15 15 -15 8 0 15 8 15 18 0
12 3 13 8 5 10 -15 78 -6 80 11 0 6 2 32 3 59 1 32 6 47 15 47 8 0 14 7 14 15
0 8 -7 15 -15 15 -9 0 -15 9 -15 25 0 27 13 31 54 15 20 -7 26 -6 26 4 0 21
63 26 121 11 42 -11 55 -12 61 -2 7 12 12 3 9 -18 -1 -5 5 -2 13 8 13 16 14
12 18 -40 1 -32 -2 -101 -9 -153 -7 -52 -17 -153 -23 -225 -6 -71 -14 -137
-17 -145 -3 -8 -5 -31 -5 -50 1 -32 0 -32 -9 10 -11 49 -5 126 13 177 14 40 9
47 -26 34 -31 -12 -35 -31 -6 -31 27 0 25 -5 -12 -39 -24 -22 -33 -40 -39 -77
l-6 -49 -2 48 c-1 34 -5 47 -14 45 -7 -3 -17 -50 -27 -131 -8 -69 -18 -129
-22 -132 -4 -4 -11 8 -16 26 -9 32 -9 31 -10 -20 -1 -63 -15 -84 -36 -56 -13
19 -15 17 -22 -20 -4 -22 -8 -67 -8 -101 -1 -51 -4 -60 -17 -57 -13 4 -19 -5
-24 -36 -5 -31 -11 -41 -26 -41 -13 0 -19 -7 -19 -24 0 -14 -5 -28 -11 -31 -6
-4 -7 -19 -4 -35 4 -16 2 -31 -5 -35 -6 -3 -7 -13 -2 -20 10 -19 3 -95 -9 -95
-5 0 -9 9 -9 20 0 11 -4 20 -10 20 -9 0 -7 -45 5 -182 2 -26 0 -50 -6 -53 -5
-4 -9 -15 -9 -26 0 -14 -7 -19 -25 -19 -22 0 -25 -4 -25 -40 0 -29 4 -40 15
-40 30 0 14 -31 -24 -46 -45 -18 -63 -44 -27 -37 21 4 23 0 29 -58 10 -88 9
-99 -8 -99 -11 0 -15 -11 -15 -40 0 -22 4 -40 9 -40 5 0 4 -17 -1 -40 -6 -22
-14 -40 -19 -40 -5 0 -9 -17 -8 -37 l1 -38 10 33 c6 17 14 32 18 32 11 0 19
-64 9 -68 -5 -2 -9 -10 -9 -17 0 -8 -5 -26 -11 -42 -7 -19 -13 -23 -18 -15 -6
10 -11 9 -21 -3 -11 -13 -11 -20 -2 -33 22 -30 26 -46 14 -50 -7 -2 -12 -21
-12 -42 0 -21 -6 -41 -12 -44 -7 -3 -3 -3 10 0 12 3 22 1 22 -5 0 -6 -4 -11
-10 -11 -5 0 -10 -5 -10 -12 0 -6 -8 -20 -17 -30 -14 -16 -15 -22 -4 -40 8
-12 9 -24 3 -30 -5 -5 -7 -31 -4 -58 3 -33 1 -50 -7 -50 -6 0 -11 -17 -11 -38
0 -31 -5 -41 -25 -52 -28 -15 -33 -45 -10 -54 11 -4 15 -19 14 -53 -1 -41 -2
-44 -8 -18 l-7 30 -11 -32 c-6 -17 -9 -40 -6 -51 3 -14 -2 -21 -16 -25 -28 -7
-27 -27 1 -27 20 0 20 -1 5 -18 -10 -10 -17 -24 -17 -31 0 -7 -6 -11 -12 -8
-8 3 -14 -6 -15 -24 -2 -21 2 -27 12 -22 8 3 15 0 15 -6 0 -6 -4 -11 -10 -11
-14 0 -12 -27 3 -33 10 -4 10 -6 0 -6 -7 -1 -13 -12 -13 -26 l0 -25 4388 0
4387 0 -3 75 c-3 59 -1 75 10 73 9 -2 14 15 16 64 4 98 16 154 32 150 10 -2
12 11 7 59 -3 36 -1 72 6 86 8 17 8 29 0 41 -11 19 -11 51 1 71 5 7 11 54 13
105 5 107 10 139 22 131 5 -2 4 13 -1 35 -11 43 -3 103 11 81 6 -10 10 -9 15
4 9 25 8 28 -10 21 -16 -6 -15 0 9 71 8 25 8 36 -1 45 -18 18 -15 28 9 28 14
0 19 5 17 18 -2 9 -10 16 -16 15 -13 -3 -15 7 -6 30 3 8 13 13 23 10 15 -4 20
3 25 34 4 21 10 48 13 61 3 13 1 22 -5 20 -5 -2 -10 2 -11 7 -1 6 2 10 7 10
22 1 32 19 26 50 -5 27 -2 34 13 38 17 4 17 5 -1 6 -17 1 -18 7 -11 74 3 39
11 77 17 84 6 8 6 18 -1 32 -8 13 -8 20 0 23 13 4 15 148 2 157 -6 3 -13 16
-17 29 -4 12 -12 22 -17 22 -5 0 -9 7 -9 16 0 8 4 13 8 10 4 -2 6 10 4 28 -2
21 2 39 12 49 10 10 12 18 6 22 -20 12 -10 35 15 35 27 0 31 10 15 41 -6 11
-21 19 -36 19 -24 0 -24 1 -9 30 8 16 15 44 15 62 0 26 6 36 27 46 32 14 99
16 108 2 3 -5 0 -10 -8 -10 -8 0 -20 -7 -27 -15 -9 -10 -9 -15 -1 -15 6 0 11
5 11 10 0 6 5 10 10 10 6 0 10 -7 10 -15 0 -9 11 -21 25 -27 14 -6 25 -17 25
-24 0 -15 39 -39 48 -30 3 4 -9 21 -26 39 -36 37 -39 47 -17 47 8 0 15 -7 15
-15 0 -14 3 -13 25 1 34 22 58 4 45 -32 -7 -19 -6 -24 5 -24 8 0 15 -6 15 -12
1 -7 9 3 18 22 10 21 27 36 42 40 18 4 27 16 36 45 9 35 15 41 45 45 39 6 105
44 113 65 3 8 14 15 24 15 10 0 22 4 27 8 18 16 119 32 160 26 57 -9 80 -8
167 0 63 6 80 5 102 -9 16 -11 32 -14 43 -10 10 5 23 7 28 5 58 -16 75 -17 75
-4 0 18 28 18 46 -1 10 -10 36 -15 76 -15 39 0 67 -5 77 -14 20 -17 41 -21 63
-12 17 8 58 -24 58 -44 0 -6 18 -17 40 -26 44 -18 52 -34 18 -34 -21 0 -21 -1
-5 -17 16 -16 19 -16 27 -3 9 13 10 13 10 0 0 -8 5 -22 10 -30 8 -13 11 -12
24 5 14 19 15 19 22 -8 5 -21 9 -25 15 -15 6 8 9 -6 9 -37 0 -31 7 -62 18 -80
11 -18 21 -58 24 -96 5 -57 3 -66 -11 -65 -9 0 -16 -6 -16 -14 0 -8 8 -14 18
-14 14 2 17 -7 17 -53 0 -51 -1 -54 -17 -42 -13 11 -17 11 -20 2 -3 -7 -11
-13 -19 -13 -16 0 -19 -16 -4 -25 6 -3 13 1 16 9 12 32 24 14 24 -36 0 -37 -3
-48 -10 -38 -13 21 -23 5 -11 -18 15 -28 14 -52 -3 -52 -23 0 -39 -27 -27 -47
9 -16 10 -16 11 5 0 30 16 20 22 -13 5 -22 2 -25 -16 -23 -20 3 -21 0 -21
-120 0 -86 3 -121 11 -118 8 3 9 -6 2 -34 -8 -29 -6 -44 6 -69 23 -44 29 -108
15 -166 -6 -27 -12 -68 -12 -90 0 -24 -7 -45 -16 -52 -13 -9 -15 -31 -13 -119
3 -111 7 -129 21 -105 6 9 11 10 15 2 4 -6 2 -11 -4 -11 -8 0 -10 -13 -5 -40
4 -24 3 -40 -3 -40 -5 0 -15 -14 -22 -31 -11 -27 -10 -36 9 -75 12 -24 27 -44
32 -44 5 0 9 -20 9 -45 0 -42 2 -45 28 -45 21 0 24 -2 12 -10 -8 -5 -27 -10
-42 -10 -23 0 -28 -4 -28 -25 0 -20 5 -25 28 -26 23 -2 24 -2 5 -6 -32 -6 -32
-67 -1 -100 19 -20 20 -27 10 -43 -8 -13 -9 -27 -2 -45 l10 -25 145 0 c125 0
145 2 145 16 0 8 7 91 15 182 21 238 44 615 51 837 7 197 -5 430 -32 650 -28
225 -28 293 1 540 15 127 29 252 31 279 1 27 9 53 16 57 7 5 37 9 66 9 30 0
95 4 145 10 51 5 169 16 262 25 94 9 202 20 240 26 39 5 111 14 160 19 255 26
504 77 562 115 43 29 46 3 -39 375 -17 74 -41 167 -54 205 -12 39 -25 94 -29
124 -3 30 -15 72 -26 94 -13 25 -29 99 -44 201 -13 88 -33 215 -44 281 -11 66
-25 152 -31 190 -45 285 -79 483 -122 695 -81 402 -149 752 -173 890 -15 85
-28 149 -45 225 -5 22 -13 67 -19 100 -6 33 -22 119 -36 190 -14 72 -34 177
-45 235 -11 58 -26 139 -35 180 -8 41 -31 167 -50 280 -20 113 -47 259 -61
325 -36 176 -74 364 -85 415 -6 25 -16 79 -24 120 -20 109 -90 443 -113 541
-11 46 -23 104 -27 129 -3 25 -22 108 -40 185 -86 356 -83 337 -84 526 -1 279
-46 520 -125 677 -13 26 -32 79 -41 117 -31 122 -79 205 -206 355 -11 14 -70
90 -131 170 -60 80 -117 154 -126 165 -9 11 -33 42 -52 68 -178 244 -323 400
-510 548 -129 102 -374 286 -570 427 -25 18 -182 124 -350 236 -371 247 -540
349 -900 541 -80 43 -222 122 -316 176 -95 54 -209 117 -254 139 -74 35 -86
45 -112 90 -44 78 -113 101 -180 60 -43 -26 -72 -25 -136 5 -70 32 -141 107
-193 202 -23 43 -49 86 -57 96 -16 18 -57 23 -66 9 -6 -9 -127 -57 -168 -66
-38 -9 -129 58 -256 186 -261 264 -368 458 -431 778 -34 170 -43 313 -47 742
l-4 438 26 23 25 24 -26 32 c-20 23 -25 38 -21 56 4 17 2 25 -6 25 -10 0 -9 3
1 9 8 5 21 7 30 3 11 -3 9 2 -7 20 -25 28 -28 40 -8 32 18 -7 31 15 17 29 -6
6 -11 17 -11 24 0 11 7 10 36 -2 44 -18 44 -18 44 0 0 7 -7 18 -16 23 -24 14
-10 28 45 47 45 15 112 59 166 110 12 11 47 54 78 95 55 73 75 99 147 190 20
25 45 68 57 95 12 28 35 81 52 119 38 83 38 89 5 74 -18 -8 -24 -17 -20 -31 5
-19 -12 -57 -26 -57 -4 0 -9 9 -13 19 -6 20 23 91 37 91 4 0 8 7 8 15 0 8 7
15 16 15 11 0 13 6 9 19 -4 12 4 39 19 68 15 26 26 54 26 60 0 7 3 13 8 13 13
0 31 51 24 68 -5 16 -5 16 11 0 14 -14 16 -24 9 -55 -12 -52 -51 -125 -52 -98
-1 14 -24 -49 -30 -82 0 -2 4 -3 9 -3 12 0 44 55 66 115 10 28 22 54 27 60 13
15 9 51 -7 65 -20 17 -19 26 10 85 13 28 25 57 25 65 0 10 3 11 11 3 9 -9 8
-21 -5 -46 -9 -19 -16 -45 -16 -57 0 -11 -4 -19 -9 -16 -5 4 -7 -4 -4 -15 6
-20 7 -21 19 -5 27 37 47 154 41 244 -8 132 -15 163 -48 212 -24 37 -29 40
-23 18 9 -39 -24 -35 -39 5 -15 40 -142 18 -198 -34 -27 -25 -38 -29 -65 -24
-29 5 -33 9 -32 38 1 43 42 103 81 117 54 20 62 26 68 56 4 16 7 23 8 17 1
-14 21 -18 21 -4 0 4 -11 20 -25 35 -14 15 -25 29 -25 31 0 3 15 11 33 18 31
13 31 14 9 21 -25 8 -27 36 -3 44 8 3 11 0 7 -7 -4 -6 -2 -11 3 -11 14 0 14 3
-1 35 -6 14 -15 25 -20 25 -4 0 -8 8 -8 18 0 10 7 19 15 19 8 0 15 -4 15 -9 0
-16 18 -7 23 12 3 12 -1 24 -11 30 -16 9 -16 11 1 20 24 15 22 56 -3 63 -33 9
-24 30 10 24 36 -8 38 -2 8 24 -17 14 -18 17 -5 13 13 -5 17 -1 17 16 0 19 -2
20 -15 10 -8 -7 -15 -9 -16 -4 0 5 -2 21 -4 36 -4 33 10 47 18 17 10 -39 25
-9 32 66 4 41 11 75 16 75 5 0 9 9 9 19 0 11 5 21 12 23 9 3 7 14 -5 40 -21
45 -21 54 1 70 35 25 34 46 -4 58 -35 12 -47 33 -16 29 9 -1 28 3 42 9 18 8
20 11 7 11 -29 1 -33 31 -7 51 l23 17 -27 7 c-34 8 -33 21 1 24 38 3 39 7 8
47 -27 36 -27 36 -6 42 23 6 24 8 21 138 -2 86 -7 115 -17 88 -12 -34 -18 -3
-19 99 -2 150 -5 170 -37 236 -9 18 -8 25 3 33 33 20 45 6 45 -53 0 -40 5 -61
19 -76 10 -12 16 -28 13 -36 -4 -9 -2 -18 3 -21 16 -10 11 77 -5 95 -12 13
-13 26 -7 56 l8 39 19 -35 c29 -55 30 -16 1 46 -14 30 -26 63 -26 74 0 10 -34
85 -75 166 -41 80 -72 151 -69 156 3 5 0 15 -6 23 -10 12 -10 18 -1 29 10 11
9 16 -4 23 -9 5 -17 21 -19 36 -1 15 -10 35 -19 45 -10 10 -17 24 -17 30 0 6
-9 14 -20 17 -11 3 -20 11 -20 16 0 5 -5 9 -11 9 -5 0 -7 -4 -4 -10 8 -13 -6
-13 -25 1 -11 8 -12 12 -3 16 10 3 10 8 -1 19 -19 18 -30 18 -22 -1 8 -22 -10
-18 -34 7 -35 37 -24 47 27 26 41 -17 53 -18 53 -4 0 17 -55 47 -74 40 -9 -3
-23 -1 -31 6 -12 10 -15 9 -15 -9 0 -22 -14 -28 -26 -10 -3 6 -20 18 -38 26
l-31 14 37 -5 c21 -2 40 -1 43 4 6 9 -39 24 -119 39 -47 9 -86 34 -86 56 0 7
-25 16 -62 21 -35 5 -61 14 -59 19 1 6 8 8 15 6 6 -2 22 -6 36 -9 l24 -5 -28
34 c-35 42 -48 47 -115 48 -40 1 -52 4 -48 14 4 10 -8 13 -48 12 -29 -1 -58
-6 -64 -9 -7 -4 -17 -3 -24 2 -7 6 -40 10 -73 10 -86 0 -104 7 -104 42 0 27
-2 28 -39 25 -31 -3 -39 0 -34 11 4 10 10 11 24 3 16 -8 19 -6 19 11 0 11 -4
20 -9 20 -11 0 -2 84 9 88 5 2 0 18 -10 37 -10 18 -16 36 -12 39 3 4 -4 13
-16 22 -12 8 -22 24 -22 35 0 12 -7 19 -18 19 -20 0 -52 29 -52 48 0 6 -6 9
-14 6 -7 -3 -16 2 -20 11 -3 9 -21 22 -41 31 -29 12 -37 22 -46 59 -6 25 -15
46 -20 46 -5 1 -13 3 -19 4 -5 1 -16 3 -24 4 -8 0 -40 53 -72 116 -32 64 -62
114 -68 111 -6 -2 -9 -10 -7 -17 2 -8 6 -22 8 -31 3 -10 1 -18 -5 -18 -12 0
-56 73 -67 110 -4 14 -17 35 -28 48 -12 13 -15 22 -8 22 7 0 9 5 5 11 -3 6
-17 8 -29 5 -20 -5 -28 2 -54 46 -30 52 -115 147 -177 198 -16 14 -38 37 -47
53 -10 15 -24 27 -31 27 -7 0 -19 7 -26 15 -7 8 -18 15 -26 15 -7 0 21 -34 62
-76 41 -42 81 -89 89 -104 8 -16 25 -37 38 -47 12 -10 35 -34 49 -54 22 -29
26 -42 21 -72 -4 -24 -2 -37 6 -37 6 0 11 -6 11 -14 0 -7 7 -19 15 -26 9 -7
14 -19 11 -26 -3 -7 3 -23 12 -36 46 -63 53 -107 9 -57 -17 19 -28 24 -47 19
-16 -4 -34 -1 -50 10 -14 9 -41 23 -60 30 -19 8 -48 24 -65 36 -16 12 -60 40
-97 62 -37 21 -65 42 -61 46 3 3 -7 6 -23 6 -32 0 -62 15 -51 26 8 8 -92 56
-103 49 -8 -5 -177 45 -230 68 -14 6 -36 12 -50 13 -14 1 -88 19 -165 38 -149
38 -219 45 -232 22 -19 -32 -93 -49 -93 -21 0 20 -26 19 -75 -4 -38 -18 -38
-19 -12 -20 15 -1 27 -6 27 -12 0 -7 -8 -9 -22 -4 -31 10 -99 6 -114 -6 -7 -5
-45 -11 -86 -13 -40 -2 -102 -8 -138 -14 -36 -7 -92 -12 -125 -12 -33 -1 -73
-7 -90 -15 -28 -13 -23 -14 64 -10 l94 5 -49 -26 c-27 -13 -64 -28 -83 -32
-19 -4 -36 -13 -39 -20 -3 -9 3 -10 25 -1 21 8 25 7 17 -1 -7 -7 -29 -13 -49
-15 -21 -2 -43 -9 -48 -14 -6 -6 -22 -11 -36 -12 -38 -1 -165 -71 -169 -93 -3
-15 3 -14 40 11 43 30 143 59 185 54 13 -1 30 5 39 14 10 10 26 14 38 11 11
-3 28 1 37 10 12 11 22 12 43 5 14 -6 26 -13 26 -15 0 -3 -6 -3 -13 0 -21 8
-302 -89 -407 -140 -152 -75 -187 -98 -284 -193 -50 -49 -106 -98 -124 -108
-17 -11 -32 -25 -32 -32 0 -8 -8 -17 -17 -20 -24 -9 -43 -29 -43 -45 0 -8 3
-9 8 -3 12 16 53 37 60 30 12 -11 -49 -56 -67 -50 -10 3 -28 -4 -41 -15 -13
-11 -27 -20 -32 -20 -4 0 -8 -5 -8 -11 0 -6 7 -9 15 -5 8 3 15 2 15 -3 0 -13
-30 -35 -50 -36 -10 -1 -32 -15 -48 -31 -17 -16 -44 -40 -61 -53 -18 -13 -29
-26 -26 -29 3 -4 10 0 15 8 8 13 10 12 10 -3 0 -10 -7 -20 -16 -24 -8 -3 -13
-12 -10 -20 3 -8 2 -12 -3 -9 -5 3 -35 -19 -67 -50 -46 -43 -54 -54 -34 -48
14 3 33 16 42 27 24 32 31 16 9 -24 -41 -78 -49 -90 -89 -134 -23 -26 -39 -51
-36 -57 4 -5 2 -20 -4 -31 -5 -12 -39 -83 -76 -157 -42 -87 -63 -143 -60 -156
3 -12 -1 -27 -8 -35 -37 -36 -78 -148 -78 -210 0 -11 -9 -37 -20 -59 -11 -22
-20 -55 -20 -74 0 -19 -6 -39 -12 -43 -17 -10 -38 -64 -50 -128 -6 -27 -26
-95 -45 -150 -19 -55 -37 -108 -40 -117 -4 -12 0 -18 11 -18 11 0 14 -5 10
-12 -4 -6 -9 -37 -10 -67 -2 -31 -10 -78 -19 -106 -16 -54 -18 -101 -9 -182 6
-45 11 -55 39 -71 37 -22 75 -89 75 -132 0 -23 3 -28 17 -23 12 5 15 2 10 -10
-12 -31 4 -105 23 -110 13 -3 16 -11 13 -30 -4 -22 -1 -26 23 -29 17 -2 28 -8
26 -15 -3 -16 20 -17 36 -1 7 7 12 8 12 2 0 -15 -30 -40 -57 -48 -28 -9 -30
-42 -4 -49 14 -3 18 -11 14 -26 -3 -13 -1 -21 7 -21 7 0 10 -8 7 -20 -6 -23
10 -38 19 -17 3 9 14 12 30 9 32 -6 30 -13 -9 -37 -39 -25 -47 -59 -17 -75
l21 -11 -21 -26 c-26 -34 -25 -43 5 -43 16 0 25 -6 25 -16 0 -10 -6 -14 -15
-10 -9 3 -15 0 -15 -9 0 -18 5 -18 30 -5 19 10 19 9 2 -20 -12 -21 -14 -33 -6
-38 6 -4 10 -22 9 -39 -1 -18 2 -33 7 -33 4 0 8 4 8 9 0 12 29 41 40 41 5 0
-1 -18 -12 -40 -12 -21 -25 -37 -29 -34 -4 2 -11 -1 -14 -7 -4 -6 2 -13 14
-16 12 -3 21 -13 21 -24 0 -11 7 -19 16 -19 12 0 14 -5 9 -17 -4 -10 -10 -30
-13 -46 -2 -15 -8 -30 -13 -33 -5 -3 -9 -16 -9 -29 0 -17 6 -25 23 -27 19 -3
22 -8 20 -48 -1 -25 -5 -58 -8 -75 l-6 -30 20 24 c23 26 27 17 10 -25 -11 -30
-4 -78 10 -70 5 3 7 -12 6 -33 -2 -30 1 -38 11 -34 17 6 19 -28 4 -43 -8 -8
-6 -15 5 -24 8 -7 15 -16 15 -21 0 -14 -34 3 -65 34 -37 37 -104 68 -131 61
-31 -8 -66 -89 -69 -159 -2 -33 0 -64 4 -70 4 -5 15 -37 25 -70 10 -33 26 -84
37 -112 10 -29 16 -53 13 -53 -3 0 10 -21 29 -47 19 -27 49 -75 66 -108 18
-33 39 -64 48 -68 8 -5 19 -21 25 -35 21 -50 19 1 -2 62 -11 33 -20 70 -20 83
0 14 -4 21 -10 18 -6 -4 -10 22 -10 72 0 43 -5 120 -10 170 -9 83 -8 96 9 125
14 25 24 32 42 30 31 -3 33 -7 17 -31 -18 -29 2 -49 26 -26 14 15 15 14 9 -16
-4 -23 -3 -30 5 -25 18 11 15 -25 -4 -45 -9 -10 -14 -26 -10 -35 5 -14 9 -12
27 10 27 34 41 24 25 -17 -15 -35 -10 -151 5 -141 5 3 9 14 9 24 0 25 15 33
29 16 9 -11 9 -17 -1 -27 -7 -8 -21 -26 -31 -41 -15 -24 -15 -28 -2 -28 8 0
15 -4 15 -10 0 -5 -7 -7 -15 -4 -12 5 -15 -2 -15 -33 0 -45 27 -133 41 -133 5
0 9 -7 9 -16 0 -8 10 -30 23 -47 12 -18 27 -41 33 -52 21 -37 39 -24 35 25 -2
25 -6 47 -10 50 -4 3 -8 14 -8 25 -3 60 -24 281 -28 296 -3 9 -15 19 -27 23
-24 6 -20 16 9 21 10 1 16 9 14 16 -5 23 -2 758 4 839 3 41 7 126 9 189 2 64
8 116 14 120 5 3 13 32 17 64 4 31 11 59 15 62 5 3 11 33 15 66 6 48 11 63 26
66 21 6 26 29 7 36 -17 5 18 46 50 58 18 7 22 16 22 54 0 25 4 45 8 45 5 0 23
21 41 46 18 25 35 43 38 40 8 -7 33 20 33 36 0 22 17 41 37 43 10 0 19 4 21 8
5 16 1 27 -9 25 -16 -4 -31 54 -18 67 7 7 13 5 20 -5 7 -11 9 -7 4 17 -3 17
-2 34 3 37 5 3 7 17 4 31 -3 18 0 25 12 25 11 0 16 9 16 30 0 17 5 30 10 30 6
0 10 -7 10 -16 0 -11 5 -14 16 -10 9 3 17 6 19 6 2 0 1 8 -2 18 -3 13 7 23 39
37 29 13 37 20 26 23 -23 5 -23 15 2 37 31 28 26 46 -10 34 -16 -6 -35 -9 -42
-6 -7 3 -3 6 9 6 18 1 21 6 18 31 -3 21 0 30 10 30 24 0 17 18 -7 23 -18 3
-17 5 6 6 23 1 27 4 18 13 -17 17 -15 25 9 31 14 4 20 11 16 21 -7 17 39 74
50 63 8 -9 43 22 43 38 0 7 7 18 15 25 9 7 14 15 12 17 -3 2 -19 -10 -37 -27
-31 -29 -60 -39 -60 -21 0 10 50 61 60 61 10 0 70 56 70 65 0 5 -7 16 -16 26
-14 16 -14 18 5 24 16 5 20 13 17 35 -2 16 1 34 5 42 7 11 9 11 9 -1 0 -16 41
-54 49 -45 3 3 -2 10 -12 15 -9 6 -17 22 -17 36 0 20 3 23 13 15 7 -6 17 -8
23 -4 17 11 24 40 11 46 -9 3 -8 7 3 15 10 7 17 7 21 -1 3 -5 15 -8 25 -6 23
4 32 57 12 70 -10 7 -9 10 5 19 9 5 17 22 17 37 l1 27 14 -30 c7 -16 14 -23
15 -15 0 8 7 2 15 -15 9 -20 14 -24 14 -12 1 9 6 17 12 17 6 0 8 7 5 15 -3 10
1 18 11 22 9 4 19 1 21 -5 6 -18 36 -14 53 6 9 10 24 36 35 59 16 33 31 46 84
72 36 17 72 31 80 31 8 0 22 5 30 11 12 8 10 9 -8 4 -15 -4 -22 -2 -22 8 0 22
11 27 33 16 24 -13 59 3 76 35 17 31 78 56 144 58 40 1 57 5 57 15 0 19 12 16
39 -12 29 -31 34 -31 65 0 29 29 36 31 36 10 0 -10 10 -15 26 -15 23 0 25 2
14 15 -17 21 -4 32 20 17 15 -9 24 -9 38 -1 14 9 31 8 73 -4 32 -10 57 -13 63
-7 5 5 22 6 37 3 29 -5 40 9 18 23 -6 3 -8 15 -5 26 4 18 1 20 -29 15 -19 -3
-37 -1 -40 4 -4 5 18 9 49 9 49 0 56 -3 56 -19 0 -11 5 -23 10 -26 6 -3 10 -1
10 5 0 6 5 8 13 3 19 -12 47 -14 47 -3 0 16 40 11 47 -5 3 -9 13 -15 22 -14
33 3 52 -1 46 -11 -3 -5 -1 -10 4 -10 6 0 11 11 11 25 0 18 5 25 20 25 11 0
20 -6 20 -14 0 -13 25 -26 60 -31 23 -3 55 -21 70 -39 7 -10 28 -16 50 -16 26
0 48 -8 68 -25 21 -18 42 -25 71 -25 29 0 41 -4 42 -15 3 -32 4 -36 17 -44 7
-4 10 -15 6 -25 -5 -13 1 -20 25 -29 17 -6 31 -17 31 -24 0 -7 5 -13 11 -13 8
0 8 -4 0 -14 -10 -11 -3 -17 33 -29 35 -12 44 -13 40 -2 -4 9 7 14 33 16 58 6
96 -4 108 -27 8 -17 15 -19 34 -13 24 9 41 4 41 -12 0 -5 -9 -9 -21 -9 -12 0
-19 -5 -16 -12 2 -7 14 -12 26 -10 12 2 35 -8 52 -22 17 -14 37 -26 45 -26 8
0 14 -10 14 -25 0 -15 6 -25 15 -25 10 0 17 -14 21 -40 4 -22 10 -40 15 -40
14 0 11 -78 -3 -83 -8 -3 -3 -9 12 -14 l25 -10 -23 -7 c-27 -9 -29 -36 -2 -36
11 0 20 -5 20 -10 0 -6 -11 -8 -25 -4 -27 7 -44 -16 -28 -39 5 -6 10 -36 12
-64 3 -48 1 -53 -18 -53 -12 0 -21 -5 -21 -12 0 -9 -3 -9 -12 0 -7 7 -19 12
-27 12 -12 0 -11 -3 3 -13 17 -12 14 -47 -4 -47 -20 0 -40 -66 -40 -133 0 -55
-4 -73 -17 -83 -17 -13 -17 -15 -1 -28 13 -9 18 -27 18 -59 0 -40 3 -46 26
-51 19 -5 24 -11 19 -26 -5 -15 -2 -20 12 -21 10 -1 27 -2 38 -3 11 -1 30 -3
43 -4 19 -2 22 -8 22 -46 0 -26 -5 -47 -12 -50 -7 -3 -4 -4 8 -1 11 3 36 -1
54 -8 l32 -14 -33 -13 -34 -12 33 -14 c33 -15 42 -38 18 -47 -19 -8 -87 17
-102 37 -9 13 -35 18 -114 21 l-103 5 24 -20 24 -21 -37 6 c-24 4 -38 2 -38
-5 0 -5 -18 -10 -39 -10 -44 0 -71 -8 -71 -21 0 -5 11 -9 25 -9 14 0 29 -8 36
-21 12 -22 14 -22 -49 -4 -12 3 -22 12 -22 20 0 10 -11 12 -40 8 -33 -5 -40
-3 -40 11 0 12 -5 16 -19 11 -10 -3 -35 -8 -56 -10 -44 -6 -55 -12 -55 -29 0
-9 -14 -13 -44 -12 -34 1 -42 4 -34 14 8 9 6 12 -6 12 -9 0 -19 -7 -22 -15 -4
-10 -13 -13 -25 -10 -16 6 -43 -5 -79 -31 -8 -6 -35 -16 -60 -23 -25 -7 -73
-26 -108 -42 -34 -16 -68 -29 -76 -29 -8 0 -18 -9 -21 -20 -3 -11 -11 -20 -16
-20 -5 0 -9 -6 -9 -14 0 -7 -13 -16 -30 -19 -24 -5 -30 -12 -30 -31 0 -20 -4
-24 -17 -19 -10 4 -21 11 -25 17 -4 6 -14 6 -30 -1 -18 -9 -19 -12 -5 -12 20
-1 23 -21 3 -21 -11 0 -14 -11 -13 -42 2 -40 1 -42 -33 -49 -19 -4 -39 -4 -45
-1 -5 4 -28 7 -51 7 l-40 0 14 -27 c16 -32 18 -33 38 -13 9 8 20 15 25 15 15
0 10 -20 -6 -26 -8 -4 -15 -14 -15 -24 0 -11 -4 -22 -10 -25 -5 -3 -10 -14
-10 -25 0 -15 -6 -17 -40 -13 -22 3 -40 3 -40 0 0 -4 8 -22 17 -42 15 -31 21
-35 43 -30 17 4 21 3 11 -4 -11 -7 -8 -12 13 -26 18 -12 26 -26 26 -46 0 -16
-4 -29 -10 -29 -5 0 -10 -5 -10 -11 0 -6 6 -9 14 -6 21 8 46 -25 46 -61 0 -18
5 -32 12 -32 6 0 4 -6 -7 -13 -18 -14 -13 -43 6 -32 5 4 12 -2 16 -12 3 -10
12 -22 20 -26 17 -10 17 -22 -2 -40 -13 -13 -11 -16 10 -21 18 -5 24 -12 22
-28 -1 -16 7 -26 28 -37 30 -14 62 -50 58 -63 -4 -11 66 -50 77 -43 6 4 17 1
25 -5 12 -10 15 -9 15 7 0 15 7 18 40 18 26 0 40 4 40 12 0 7 -5 13 -12 13
-20 0 2 14 41 26 51 15 102 7 108 -17 6 -20 23 -26 23 -8 0 6 15 1 34 -10 21
-13 50 -21 80 -21 25 0 46 -4 46 -10 0 -6 46 -9 120 -7 66 1 121 -2 123 -6 3
-11 236 44 234 56 -1 6 16 16 38 22 30 9 41 18 43 35 3 18 6 20 13 9 7 -11 12
-12 26 -2 10 7 33 19 51 28 28 12 33 19 30 42 -2 23 1 28 18 26 15 -2 27 9 43
37 23 41 41 52 41 25 0 -8 5 -15 10 -15 6 0 10 6 10 14 0 9 8 12 25 8 18 -3
30 1 40 14 10 14 14 15 15 5 0 -12 3 -12 18 0 31 25 169 6 164 -23 -1 -9 2
-19 8 -23 5 -3 10 -13 10 -22 0 -9 10 -24 22 -34 11 -11 18 -22 14 -26 -4 -4
-11 -1 -16 7 -5 8 -11 12 -14 9 -9 -9 22 -66 39 -72 8 -3 17 -21 20 -40 6 -29
10 -33 31 -29 24 4 29 -4 18 -32 -3 -9 -11 -13 -17 -9 -6 4 -8 0 -4 -10 3 -9
1 -17 -4 -19 -15 -5 1 -88 17 -88 8 0 14 -9 14 -20 0 -11 -4 -20 -10 -20 -5 0
-10 4 -10 8 0 15 -58 11 -64 -4 -4 -12 -2 -12 14 -4 18 10 20 7 20 -30 0 -30
4 -40 16 -40 9 0 14 -6 12 -12 -3 -7 -13 -13 -24 -13 -12 0 -18 -6 -18 -17 1
-10 -3 -18 -8 -18 -6 0 -8 9 -5 20 3 13 0 20 -10 20 -9 0 -13 -6 -9 -15 4 -11
-2 -15 -20 -15 -14 0 -23 -4 -19 -10 4 -6 11 -7 17 -4 12 7 8 -23 -12 -98 -8
-27 -15 -36 -25 -31 -11 3 -13 1 -10 -10 4 -8 -1 -17 -9 -20 -18 -7 -14 -100
5 -123 9 -11 8 -14 -5 -14 -11 0 -16 9 -17 28 0 15 -3 20 -6 12 -2 -8 -7 -22
-10 -30 -4 -8 -5 -22 -4 -30 1 -11 -1 -10 -9 3 -10 16 -13 15 -44 -8 -18 -14
-35 -23 -38 -20 -3 3 -4 -9 -4 -27 1 -38 -25 -50 -40 -18 -9 20 -10 20 -42 -9
-17 -17 -32 -34 -32 -40 0 -6 -6 -8 -14 -5 -9 3 -17 -3 -21 -15 -5 -16 -15
-21 -38 -21 -19 0 -43 -10 -59 -23 -14 -12 -40 -33 -57 -47 -34 -27 -25 -43
19 -34 24 5 24 5 5 -8 -11 -7 -39 -13 -62 -13 l-41 0 14 34 c17 40 17 51 4 51
-5 0 -10 -11 -10 -25 0 -18 -5 -25 -20 -25 -13 0 -20 -7 -20 -20 0 -13 -7 -20
-19 -20 -10 0 -21 -7 -25 -15 -8 -22 -35 -18 -44 5 -7 19 -9 19 -40 -10 -18
-16 -30 -30 -26 -30 3 0 -1 -11 -10 -25 -9 -14 -12 -25 -6 -25 5 0 10 -11 10
-24 0 -13 6 -27 13 -29 9 -4 9 -6 0 -6 -21 -1 -15 -21 6 -21 21 0 37 -54 25
-84 -12 -31 -41 -13 -46 28 -3 26 -9 31 -58 44 -64 18 -69 20 -51 31 10 7 8
14 -10 32 -13 13 -23 27 -22 30 1 4 -8 4 -20 1 -12 -3 -16 -7 -9 -10 6 -2 12
-7 12 -11 0 -5 -19 -3 -42 3 -41 11 -41 11 -12 16 l29 6 -29 15 -28 16 35 22
c26 16 34 27 29 39 -6 16 -7 16 -10 0 -2 -11 -13 -18 -28 -18 -24 0 -32 14
-15 24 11 7 21 56 10 56 -4 0 -10 13 -14 30 -5 24 -13 31 -43 36 -41 8 -102
62 -105 94 -1 11 -8 20 -15 20 -10 0 -13 9 -10 30 3 19 0 30 -7 30 -15 0 -47
35 -39 43 7 7 -40 73 -75 105 -25 23 -25 23 -4 17 14 -4 23 -2 23 4 0 18 -39
51 -60 51 -17 0 -19 -5 -13 -32 4 -22 3 -29 -5 -24 -7 4 -12 13 -12 21 0 7 -9
17 -20 20 -11 3 -20 10 -20 15 0 5 -8 11 -19 15 -13 4 -17 12 -13 30 6 32 -5
32 -30 0 -11 -14 -29 -26 -41 -26 -16 -1 -17 -3 -5 -6 9 -2 19 -12 21 -21 3
-12 5 -10 6 6 0 12 6 22 11 22 6 0 8 -11 4 -25 -5 -22 -3 -25 20 -25 15 0 29
-6 32 -14 3 -8 25 -19 50 -25 27 -7 44 -17 44 -26 0 -8 9 -19 20 -25 11 -6 18
-15 15 -19 -2 -5 3 -19 13 -32 23 -30 41 -75 44 -113 2 -24 -2 -31 -20 -35
-12 -3 -28 -17 -35 -31 -7 -14 -24 -27 -39 -30 -15 -3 -40 -17 -56 -31 -28
-26 -29 -26 -41 -7 -9 14 -19 18 -36 14 -14 -4 -27 0 -35 9 -9 11 -18 12 -38
4 -18 -7 -28 -7 -30 0 -2 6 -11 11 -20 11 -15 0 -15 2 -2 11 11 8 12 12 3 16
-7 2 -13 11 -13 19 0 8 -11 14 -27 15 -28 0 -28 0 -5 10 43 17 19 34 -49 35
-35 0 -78 4 -96 8 -29 7 -32 5 -43 -28 -13 -40 -14 -41 -59 -25 -28 10 -34 9
-46 -7 -22 -30 -17 -38 11 -19 30 20 46 11 18 -10 -11 -8 -14 -15 -6 -15 19 0
14 -30 -5 -31 -11 0 -13 -3 -5 -6 17 -7 5 -23 -19 -23 -11 0 -23 -8 -26 -17
-6 -15 -8 -14 -14 7 l-6 25 -11 -25 -11 -25 0 26 c-1 14 8 34 19 44 26 23 26
39 0 23 -11 -7 -20 -18 -20 -25 0 -7 -9 -13 -20 -13 -11 0 -20 6 -20 14 0 33
-26 44 -80 33 -49 -9 -50 -11 -34 -28 22 -25 10 -37 -14 -16 -10 10 -29 17
-43 16 l-24 0 25 -11 25 -11 -33 -9 c-38 -10 -72 -37 -72 -55 0 -7 -6 -13 -12
-13 -7 0 -24 -9 -37 -19 -14 -10 -31 -17 -38 -14 -20 8 -42 -15 -36 -37 3 -11
9 -20 14 -20 5 0 9 -9 9 -20 0 -11 8 -24 18 -27 21 -8 92 -53 111 -71 7 -7 26
-16 42 -19 16 -3 29 -9 29 -14 0 -5 11 -9 25 -9 13 0 43 -9 65 -21 28 -15 44
-18 53 -11 6 6 28 12 47 14 34 3 35 2 32 -31 -7 -72 29 -96 152 -100 44 -2 63
2 78 15 15 15 21 16 27 5 6 -10 13 -10 28 -3 21 12 63 5 63 -9 0 -15 -58 -39
-93 -39 -19 0 -40 -7 -48 -16 -8 -9 -21 -13 -35 -10 -18 5 -21 2 -17 -14 3
-13 0 -20 -8 -21 -26 -2 -54 3 -65 12 -17 14 -184 9 -184 -6 0 -13 -43 -25
-90 -25 -15 0 -33 -7 -40 -15 -7 -8 -20 -15 -28 -15 -25 0 -112 -44 -112 -56
0 -9 -66 -43 -113 -58 -9 -3 -16 -11 -15 -18 4 -20 -59 -19 -83 1 -24 19 -19
61 7 61 12 0 12 4 -3 25 -22 30 -37 32 -28 5 9 -29 -10 -25 -34 8 -12 15 -25
32 -31 39 -16 19 -12 41 11 53 11 7 18 18 15 25 -4 10 2 11 24 5 16 -5 29 -5
28 -2 -1 4 2 15 6 24 17 38 3 53 -49 53 -39 0 -49 -3 -47 -15 3 -10 -4 -8 -20
8 -32 29 -46 28 -54 -5 -13 -60 -36 -122 -46 -125 -7 -3 -8 -32 -3 -91 6 -74
9 -87 25 -87 10 0 20 7 24 15 7 20 33 19 62 -4 19 -15 21 -20 9 -25 -8 -3 -15
-12 -15 -19 0 -8 -9 -26 -21 -41 -11 -14 -16 -26 -11 -26 6 0 12 6 15 13 5 15
37 -9 37 -29 0 -20 21 -28 31 -13 6 10 9 4 9 -18 0 -18 5 -33 10 -33 6 0 10 5
10 11 0 6 9 8 20 4 11 -4 19 -3 18 2 -1 4 4 18 12 30 13 20 16 21 31 7 18 -16
159 -29 159 -15 0 12 73 -3 77 -16 2 -6 -9 -15 -24 -20 -27 -10 -27 -10 -5
-17 12 -4 22 -15 22 -24 0 -15 2 -15 10 -2 7 12 12 12 21 3 9 -9 9 -15 0 -27
-7 -8 -11 -25 -9 -38 2 -19 9 -23 37 -21 19 1 41 -5 49 -14 13 -13 11 -14 -20
-8 -41 8 -60 -9 -48 -41 6 -14 21 -24 44 -28 20 -4 36 -13 36 -20 0 -8 6 -19
14 -26 8 -6 12 -18 9 -27 -8 -21 15 -33 65 -33 31 0 42 -4 42 -15 0 -10 -10
-15 -34 -15 -43 0 -51 -11 -24 -34 17 -15 22 -16 29 -5 7 12 9 12 9 0 0 -11 5
-10 20 4 20 18 20 17 20 -17 0 -63 23 -93 81 -106 35 -8 56 -9 64 -2 15 13 71
16 113 6 21 -5 32 -4 32 3 0 6 5 11 11 11 6 0 17 7 26 15 12 12 18 13 29 4 8
-6 25 -9 38 -7 15 3 27 0 30 -8 3 -8 10 -14 15 -14 6 0 8 6 5 14 -6 14 22 30
37 20 5 -3 9 -12 9 -20 0 -8 4 -14 10 -14 5 0 6 8 3 17 -5 12 -2 15 9 11 8 -4
21 -2 29 4 11 8 11 9 -3 4 -10 -3 -20 -1 -23 4 -4 6 -1 10 6 10 6 0 17 7 24
16 10 14 15 14 32 4 25 -16 73 -6 73 15 0 8 5 15 11 15 7 0 9 -12 7 -31 l-5
-31 41 6 c75 12 121 14 132 5 8 -6 24 3 48 27 40 40 42 44 21 44 -8 0 -15 5
-15 11 0 18 24 4 35 -19 6 -13 19 -22 32 -22 28 0 30 20 3 27 -24 6 -23 3 -6
44 14 33 13 35 -9 45 -21 10 -24 9 -27 -10 -2 -12 -6 -16 -10 -10 -12 18 25
78 52 85 16 4 18 7 8 8 -43 2 7 54 52 54 17 0 30 4 30 9 0 5 7 16 15 24 8 9
15 11 15 5 0 -6 10 -11 23 -11 l22 -1 -21 -17 c-34 -29 -41 -50 -33 -105 5
-43 4 -55 -12 -73 -21 -22 -25 -44 -9 -44 6 0 10 -7 10 -15 0 -8 -4 -15 -10
-15 -5 0 -10 7 -10 15 0 8 -7 15 -16 15 -16 0 -16 -4 8 -52 14 -29 33 -36 41
-15 3 6 6 -30 6 -80 l1 -93 -26 0 c-26 0 -26 -1 -22 -51 6 -55 1 -89 -12 -89
-5 0 -12 9 -15 20 -8 24 -25 27 -25 4 0 -28 -32 -43 -87 -44 -48 0 -53 2 -53
23 l-1 22 -18 -22 c-11 -13 -30 -23 -44 -23 -17 0 -26 -7 -30 -21 -4 -15 -11
-20 -22 -15 -9 3 -41 6 -71 6 l-54 0 0 33 c1 31 1 31 16 12 15 -20 16 -20 12
4 -4 35 -23 36 -57 3 -38 -36 -41 -57 -6 -48 19 5 25 2 25 -9 0 -9 -8 -18 -17
-21 -10 -3 -34 -14 -54 -25 -20 -10 -57 -19 -81 -19 -24 0 -50 -6 -57 -12 -11
-11 -15 -10 -19 1 -3 10 -10 8 -24 -10 -12 -14 -18 -17 -15 -7 8 22 -17 56
-28 38 -6 -10 -9 -9 -16 1 -7 11 -9 11 -9 -1 0 -8 9 -21 21 -28 16 -11 18 -16
9 -28 -16 -18 -40 -18 -40 1 0 20 -12 19 -32 -4 -15 -18 -15 -19 4 -24 24 -7
15 -27 -13 -27 -11 0 -19 7 -19 16 0 8 -5 12 -10 9 -6 -4 -8 -10 -6 -14 3 -4
-8 -8 -24 -8 -16 0 -27 4 -24 9 18 29 -74 6 -97 -25 -3 -4 -39 -9 -80 -10 -41
-1 -77 -5 -80 -10 -6 -9 -81 26 -111 51 -22 18 -38 8 -39 -26 0 -15 -3 -22 -5
-15 -3 7 -11 10 -19 7 -7 -3 -18 7 -26 25 -15 34 -24 38 -32 17 -6 -15 -57
-10 -57 5 0 5 -5 9 -10 9 -14 0 -59 51 -60 68 0 6 -7 12 -15 12 -8 0 -15 4
-15 9 0 5 -10 11 -22 13 -15 2 -22 9 -20 20 2 12 -9 20 -40 28 -31 9 -43 9
-46 1 -2 -6 -8 -11 -14 -11 -5 0 -7 8 -3 18 6 21 -15 66 -33 70 -7 1 -12 -5
-12 -13 0 -18 -12 -19 -28 -3 -18 18 -15 28 8 28 24 0 27 25 4 34 -13 5 -15
16 -12 50 5 41 3 45 -20 51 -17 4 -22 9 -14 14 13 8 6 41 -9 41 -5 0 -9 -9 -9
-20 0 -11 -4 -20 -10 -20 -5 0 -14 9 -20 20 -13 25 -42 27 -34 3 5 -15 4 -15
-5 -3 -5 8 -20 15 -33 15 -16 0 -23 6 -23 20 0 15 6 19 21 17 18 -2 21 1 17
22 -3 14 -13 32 -23 41 -17 16 -19 15 -29 -3 -6 -12 -8 -29 -4 -39 6 -16 5
-16 -10 -5 -8 8 -14 19 -11 27 8 20 -10 26 -45 14 -29 -10 -43 -29 -22 -29 5
0 15 -17 22 -37 14 -43 51 -88 92 -109 36 -19 34 -10 -5 26 -25 22 -29 29 -15
30 9 0 17 -4 17 -10 0 -5 6 -10 13 -10 8 0 22 -9 32 -20 13 -14 31 -20 62 -20
36 0 43 -3 43 -20 0 -11 -4 -20 -10 -20 -5 0 -10 -8 -11 -17 0 -14 -2 -15 -6
-3 -4 8 -12 21 -20 28 -11 11 -13 11 -13 -2 0 -10 -6 -13 -15 -10 -8 4 -13 10
-10 14 7 12 -9 20 -23 11 -16 -10 -3 -49 19 -56 11 -4 24 -15 30 -26 7 -14 16
-18 30 -14 14 5 17 2 13 -8 -4 -11 4 -17 25 -22 22 -5 28 -11 24 -22 -5 -13
-2 -15 15 -11 15 4 19 2 15 -8 -7 -19 -19 -18 -42 5 -11 11 -30 25 -42 32 -27
14 -32 18 -81 61 -21 18 -38 39 -38 45 0 7 -4 13 -10 13 -13 0 -62 52 -118
125 -26 33 -57 71 -69 85 -13 14 -23 28 -23 33 0 4 -11 12 -24 18 -13 6 -27
23 -30 38 -7 31 -62 121 -74 121 -5 0 -7 -45 -4 -100 4 -95 3 -102 -18 -125
-18 -19 -26 -22 -37 -14 -18 15 -17 110 2 156 8 19 15 51 15 69 0 24 5 34 15
34 17 0 20 25 5 35 -5 3 -21 30 -34 58 -14 29 -34 63 -44 76 -18 23 -23 24
-58 13 -121 -35 -230 -45 -469 -44 -132 1 -262 4 -288 6 -61 6 -118 34 -134
66 -17 35 -17 184 1 218 22 42 55 69 65 53 7 -11 13 -11 32 0 26 14 29 15 74
18 l30 3 -28 10 c-26 9 -27 11 -12 28 12 13 13 20 5 25 -7 4 -15 3 -19 -2 -3
-6 -21 -14 -38 -18 -19 -3 -33 -13 -33 -21 0 -17 -24 -18 -38 -1 -9 10 -9 161
-1 252 1 11 -3 56 -8 99 -7 61 -6 94 4 140 11 45 12 66 4 84 -10 21 -13 120
-26 847 -3 187 -11 360 -24 530 -8 100 -9 191 -1 315 16 278 18 301 30 377 11
65 11 76 -5 99 l-17 27 -227 -7 c-230 -7 -369 -25 -383 -51 -8 -14 -43 -10
-66 8 -13 10 -39 -7 -73 -46 -12 -14 -33 -20 -84 -23 -63 -4 -95 -15 -95 -34
0 -10 47 -23 90 -25 89 -3 296 -68 332 -103 4 -4 2 -25 -4 -48 -8 -28 -20 -46
-40 -57 -34 -20 -32 -37 5 -54 82 -39 82 -39 80 -68 -2 -28 -25 -56 -55 -68
-24 -9 -23 -38 2 -44 32 -8 23 -19 -25 -33 -25 -7 -53 -22 -63 -34 -9 -12 -29
-27 -44 -35 -16 -8 -28 -17 -28 -21 0 -10 90 -39 140 -46 57 -8 115 -35 115
-54 0 -12 -12 -14 -58 -12 -52 3 -59 2 -64 -17 -3 -14 -13 -21 -29 -21 -12 0
-35 -11 -51 -24 -26 -23 -27 -25 -11 -43 10 -11 15 -27 12 -39 -4 -14 0 -23
10 -27 11 -4 13 -15 9 -40 -7 -47 19 -95 54 -99 17 -2 28 -9 28 -18 0 -11 -14
-16 -55 -18 -67 -4 -112 -31 -91 -56 20 -24 4 -36 -47 -36 -26 0 -85 -5 -132
-11 -47 -6 -103 -12 -125 -14 -75 -7 -380 -14 -397 -9 -10 3 -18 14 -18 24 0
19 16 26 120 49 19 5 81 8 138 7 77 -2 102 1 102 11 0 18 -40 37 -52 25 -15
-15 -149 -1 -183 19 -40 25 -75 25 -82 -1 -6 -23 -8 -24 -34 -10 -21 12 -26
30 -7 30 6 0 35 12 65 26 30 14 71 26 91 28 25 1 37 7 37 16 0 11 -9 14 -30
12 -16 -1 -37 2 -45 8 -26 17 5 27 90 28 60 2 93 8 139 28 52 23 65 25 93 15
26 -9 35 -9 46 3 31 31 -14 71 -47 42 -10 -9 -23 -16 -29 -16 -17 0 -15 20 3
26 23 9 18 23 -12 30 -16 4 -36 14 -46 22 -12 11 -43 17 -97 18 -87 3 -115 13
-125 45 -5 16 1 29 22 51 28 28 32 29 69 19 60 -16 141 11 104 34 -16 10 -12
23 10 30 30 10 24 25 -10 25 -20 0 -30 -5 -30 -15 0 -8 -3 -15 -6 -15 -8 0
-94 73 -94 81 0 7 52 21 85 23 38 3 160 18 176 22 18 5 46 61 35 71 -3 4 -39
7 -79 7 -43 1 -77 6 -85 14 -8 7 -40 12 -76 12 -62 0 -105 17 -93 37 4 7 57 9
139 8 100 -2 140 1 161 12 40 20 29 37 -34 46 -30 5 -74 12 -99 15 l-45 7 -3
55 c-2 30 -8 61 -15 68 -9 11 -4 20 23 43 37 30 68 37 87 18 14 -14 55 -8 61
8 2 7 -8 17 -23 23 -23 9 -26 15 -22 38 13 63 12 66 -13 78 -35 17 -269 35
-431 34 -247 -1 -647 7 -657 14 -6 3 -20 36 -32 73 -12 37 -30 84 -41 106 -11
21 -39 92 -60 156 -59 170 -128 326 -156 353 -22 21 -34 23 -131 24 -179 1
-206 -26 -137 -136 24 -37 35 -66 35 -91 0 -28 9 -48 35 -79 40 -48 42 -59 16
-91 l-19 -24 -36 19 c-20 10 -44 34 -55 51 -16 28 -27 34 -71 40 -33 5 -69 19
-101 41 -33 22 -76 39 -122 49 -128 28 -180 42 -267 75 -139 52 -135 49 -138
107 -2 35 -8 53 -18 57 -29 11 -122 19 -149 12 -24 -6 -25 -9 -19 -55 9 -66
-10 -83 -112 -106 -44 -9 -96 -26 -116 -36 -45 -23 -89 -24 -129 -3 -17 8 -37
13 -45 10 -8 -3 -25 -1 -39 4 -20 8 -25 17 -25 43 0 50 20 71 59 64 18 -4 53
-2 78 4 39 10 50 9 94 -11 47 -23 49 -23 69 -5 25 22 40 76 43 153 2 53 -1 63
-38 117 -22 33 -68 89 -102 124 -43 43 -63 71 -63 88 0 14 -31 76 -70 137 -38
62 -74 125 -79 140 -14 35 -72 120 -191 281 -53 72 -115 164 -137 205 -151
280 -218 388 -263 420 -37 26 -48 25 -62 -5 -14 -30 -37 -32 -72 -4 -48 37
-28 79 37 79 38 0 39 1 32 28 -9 38 -48 103 -101 168 -25 30 -59 79 -76 107
-17 29 -48 73 -69 98 -21 25 -47 66 -58 90 -10 24 -31 55 -46 69 -15 14 -38
47 -51 73 -14 27 -48 74 -77 105 -29 31 -71 91 -94 132 -55 100 -79 119 -175
135 -43 7 -44 11 -23 100 20 83 19 138 -4 166 -18 23 -20 23 -85 10 -70 -14
-96 -7 -96 27 0 27 72 70 140 81 34 6 35 8 41 56 3 28 13 73 23 100 15 43 17
69 11 175 -8 140 -16 160 -71 160 -34 0 -64 30 -78 78 -3 12 -8 30 -11 41 -5
16 2 19 45 23 29 3 59 13 68 21 15 16 15 19 -4 44 -27 36 -65 40 -110 12 -35
-21 -37 -22 -47 -3 -22 40 -56 64 -90 64 -57 0 -97 53 -78 103 17 45 52 60
121 52 51 -6 64 -4 81 11 41 37 13 98 -52 109 -26 5 -49 16 -62 33 -71 85
-163 139 -217 127 -38 -8 -181 30 -198 52 -19 26 -8 80 28 131 16 23 30 47 30
52 0 5 -23 10 -52 12 -46 3 -53 6 -58 28 -5 23 -11 25 -69 28 -70 3 -87 -5
-96 -49 -5 -21 -1 -37 14 -58 25 -35 27 -74 5 -95 -25 -25 -40 -19 -95 35
l-52 52 19 35 18 34 -32 59 c-32 57 -32 59 -17 95 22 52 19 90 -7 108 -12 9
-28 16 -35 16 -11 0 -13 -452 -13 -2360z m961 393 c5 -61 2 -107 -8 -110 -7
-3 -15 1 -16 9 -2 7 -9 28 -15 46 -6 19 -8 40 -5 48 5 14 42 20 44 7z m296
-394 c15 -15 5 -39 -17 -39 -19 0 -34 25 -24 41 7 12 28 11 41 -2z m111 -193
c3 -13 -1 -17 -14 -14 -11 2 -20 11 -22 22 -3 13 1 17 14 14 11 -2 20 -11 22
-22z m7731 -132 c2 -2 -17 -4 -43 -4 -30 0 -45 4 -41 10 6 9 72 4 84 -6z m66
-14 l20 -9 -20 0 c-11 0 -27 4 -35 9 -13 9 -13 10 0 9 8 0 24 -4 35 -9z m-712
-100 c-5 -17 -49 -50 -67 -50 -16 0 9 29 30 34 13 4 24 13 24 21 0 8 4 15 9
15 5 0 7 -9 4 -20z m-8238 -15 c14 -13 25 -31 25 -40 0 -27 -70 -95 -98 -95
-34 0 -62 27 -62 60 0 35 62 95 103 99 4 1 19 -10 32 -24z m1133 -87 c7 -7 12
-24 12 -38 0 -14 -5 -31 -12 -38 -28 -28 -88 -2 -88 38 0 40 60 66 88 38z
m7142 -3 c0 -10 -10 -15 -32 -15 l-33 0 25 14 c33 19 40 19 40 1z m1730 -35
c0 -5 -4 -10 -10 -10 -5 0 -10 5 -10 10 0 6 5 10 10 10 6 0 10 -4 10 -10z m48
-71 l-3 -24 -13 23 c-7 12 -10 27 -6 33 10 17 26 -6 22 -32z m-9054 -109 c29
-6 53 -23 88 -62 81 -90 76 -116 -37 -177 -50 -27 -73 -45 -80 -65 -15 -43 3
-62 56 -58 49 3 57 -1 81 -39 29 -45 56 -44 102 6 57 61 87 75 152 68 43 -5
60 -2 89 16 43 25 63 26 93 5 19 -13 22 -24 21 -72 -1 -31 2 -69 6 -83 10 -37
-18 -95 -57 -119 -28 -17 -49 -20 -139 -19 -103 1 -108 2 -138 30 -28 25 -39
29 -82 27 -48 -2 -52 0 -95 45 -25 26 -51 47 -58 47 -14 0 -140 -92 -151 -110
-11 -18 -55 -11 -101 16 -34 20 -48 24 -57 15 -9 -9 -8 -17 2 -32 17 -28 1
-45 -28 -30 -12 7 -41 9 -68 6 -54 -7 -66 -1 -152 77 -50 45 -58 68 -25 68 8
0 48 18 88 40 85 47 106 49 150 15 55 -41 86 -28 86 36 0 30 9 48 41 85 55 63
63 88 44 127 -19 39 -19 62 1 93 33 49 86 63 168 44z m9160 -25 c3 -8 1 -15
-3 -15 -5 0 -11 7 -15 15 -3 8 -1 15 3 15 5 0 11 -7 15 -15z m81 -34 c3 -5 1
-12 -5 -16 -5 -3 -10 1 -10 9 0 18 6 21 15 7z m122 -103 c-3 -8 -6 -5 -6 6 -1
11 2 17 5 13 3 -3 4 -12 1 -19z m-10392 -124 c29 -31 31 -47 10 -64 -22 -19
-42 3 -47 50 -4 47 4 50 37 14z m646 -440 c15 -18 2 -47 -24 -52 -19 -4 -57
32 -57 53 0 21 63 20 81 -1z m492 -28 c22 -17 23 -66 0 -66 -22 0 -53 29 -53
50 0 32 23 39 53 16z m7807 -316 c19 -12 13 -16 -37 -24 -44 -6 -53 0 -31 22
14 14 47 15 68 2z m590 -84 c0 -3 -4 -8 -10 -11 -5 -3 -10 -1 -10 4 0 6 5 11
10 11 6 0 10 -2 10 -4z m290 -101 c0 -3 -11 -5 -25 -5 -17 0 -23 4 -19 15 5
11 11 12 25 4 10 -5 19 -12 19 -14z m-8050 0 c17 -20 -3 -45 -36 -45 -29 0
-33 34 -6 49 23 14 27 13 42 -4z m6280 -85 c0 -5 -5 -10 -11 -10 -5 0 -7 5 -4
10 3 6 8 10 11 10 2 0 4 -4 4 -10z m2 -82 c-6 -6 -16 -7 -23 -3 -9 6 -7 12 7
22 21 15 34 -1 16 -19z m-6910 -27 c19 -29 32 -36 80 -46 96 -19 114 -52 77
-142 -12 -30 -11 -35 24 -87 44 -67 48 -112 14 -152 -30 -35 -75 -35 -128 1
-56 36 -65 62 -49 129 12 52 12 57 -14 107 -14 29 -26 60 -26 70 0 9 -6 22
-14 28 -10 8 -13 29 -11 69 2 31 4 59 4 60 2 11 23 -7 43 -37z m594 -17 c21
-9 52 -14 70 -11 23 4 42 -2 75 -24 28 -18 57 -29 80 -29 44 0 68 -22 49 -45
-7 -8 -17 -15 -23 -15 -17 0 -57 -42 -57 -59 -1 -25 -63 -89 -102 -105 -19 -8
-54 -31 -77 -50 -53 -44 -92 -47 -126 -10 -14 15 -27 43 -30 63 -3 20 -10 52
-15 72 -6 20 -10 47 -10 60 0 32 67 144 94 157 28 14 28 14 72 -4z m10058 -44
c21 -72 21 -67 -3 -46 -11 11 -21 30 -21 43 0 28 17 31 24 3z m-3909 -10 c3
-6 -1 -13 -10 -16 -19 -8 -30 0 -20 15 8 14 22 14 30 1z m3937 -122 c-9 -9
-12 -7 -12 12 0 19 3 21 12 12 9 -9 9 -15 0 -24z m-4095 -40 c-3 -7 -5 -2 -5
12 0 14 2 19 5 13 2 -7 2 -19 0 -25z m2490 -10 c-3 -7 -5 -2 -5 12 0 14 2 19
5 13 2 -7 2 -19 0 -25z m-7 -187 c0 -11 6 -21 13 -24 10 -4 10 -7 0 -18 -11
-11 -13 -10 -13 3 0 8 -7 21 -15 28 -8 7 -12 16 -9 21 9 16 24 10 24 -10z
m-9990 -21 c0 -5 -7 -10 -15 -10 -8 0 -15 5 -15 10 0 6 7 10 15 10 8 0 15 -4
15 -10z m10010 -90 c0 -5 -2 -10 -4 -10 -3 0 -8 5 -11 10 -3 6 -1 10 4 10 6 0
11 -4 11 -10z m-93 -62 c-3 -7 -5 -2 -5 12 0 14 2 19 5 13 2 -7 2 -19 0 -25z
m55 -10 c-13 -13 -26 8 -17 30 6 16 7 16 17 -1 7 -13 7 -22 0 -29z m48 33 c0
-6 -4 -13 -10 -16 -5 -3 -10 1 -10 9 0 9 5 16 10 16 6 0 10 -4 10 -9z m-9886
-77 c21 -21 21 -23 -17 -117 -26 -64 -33 -92 -29 -129 2 -26 -3 -71 -12 -102
-19 -65 -42 -76 -115 -57 -63 16 -92 40 -106 86 -7 22 -20 54 -29 70 -10 18
-16 54 -16 92 0 89 27 118 141 148 102 28 162 31 183 9z m9723 -256 c-2 -13
-4 -3 -4 22 0 25 2 35 4 23 2 -13 2 -33 0 -45z m-9013 -15 c4 -9 2 -20 -5 -23
-19 -12 -49 1 -49 21 0 24 45 26 54 2z m2836 -108 c116 -10 171 -35 226 -103
24 -29 46 -65 49 -78 3 -13 7 -35 10 -48 3 -14 16 -37 29 -53 13 -15 56 -91
96 -168 39 -77 76 -144 81 -149 5 -6 9 -22 9 -38 0 -15 14 -48 32 -73 28 -39
32 -54 34 -117 3 -78 -6 -98 -41 -98 -12 0 -48 -9 -80 -20 -59 -20 -85 -16
-85 16 0 26 -29 44 -56 34 -37 -14 -54 -12 -61 8 -4 9 -17 31 -31 49 -13 18
-26 52 -29 75 -9 66 -68 165 -112 188 -59 29 -66 43 -51 90 11 32 11 51 1 94
-7 30 -9 65 -6 78 8 33 -19 62 -50 54 -13 -3 -40 1 -60 10 -22 9 -49 13 -65 9
-29 -6 -68 8 -82 29 -4 6 -8 22 -8 36 0 13 -14 38 -31 56 -39 41 -34 73 17
107 38 26 74 28 264 12z m6230 -145 c0 -13 -11 -13 -30 0 -12 8 -11 10 8 10
12 0 22 -4 22 -10z m290 -42 c0 -13 -20 -9 -36 6 -21 21 -17 26 11 13 14 -7
25 -15 25 -19z m-100 -2 c0 -18 -37 -27 -44 -11 -5 14 7 23 32 24 6 1 12 -5
12 -13z m-670 -11 c0 -8 -7 -15 -15 -15 -8 0 -15 7 -15 15 0 8 7 15 15 15 8 0
15 -7 15 -15z m-2955 -35 c-3 -5 -11 -10 -16 -10 -6 0 -7 5 -4 10 3 6 11 10
16 10 6 0 7 -4 4 -10z m3645 6 c0 -3 -4 -8 -10 -11 -5 -3 -10 -1 -10 4 0 6 5
11 10 11 6 0 10 -2 10 -4z m120 -121 c0 -13 5 -25 12 -27 14 -5 4 -38 -12 -38
-5 0 -10 9 -10 19 0 11 -5 21 -12 23 -7 3 -9 14 -4 31 8 32 26 27 26 -8z
m-8415 -5 c3 -5 26 -10 49 -10 69 0 92 -54 32 -75 -25 -8 -31 -6 -54 23 -15
18 -35 32 -44 32 -9 0 -20 5 -23 10 -8 13 3 30 20 30 8 0 17 -4 20 -10z m1395
-5 c0 -8 -4 -15 -10 -15 -5 0 -10 7 -10 15 0 8 5 15 10 15 6 0 10 -7 10 -15z
m6607 -61 c-3 -3 -12 -4 -19 -1 -8 3 -5 6 6 6 11 1 17 -2 13 -5z m-6643 -56
c43 -58 96 -156 96 -178 0 -21 -59 -90 -76 -90 -19 0 -34 18 -46 55 -11 32
-19 40 -44 46 -17 3 -42 13 -55 22 -36 26 -59 21 -124 -28 -72 -54 -104 -57
-146 -16 -16 16 -29 34 -29 40 0 6 14 26 30 45 17 18 37 50 45 69 25 59 77 61
140 5 l36 -31 37 35 c71 68 100 73 136 26z m6567 18 c5 2 13 -5 19 -16 6 -11
17 -20 25 -20 8 0 21 -14 28 -32 9 -21 16 -28 21 -20 4 7 2 12 -3 12 -6 0 -11
5 -11 11 0 8 5 8 15 -1 11 -9 18 -10 29 -1 16 13 41 -10 33 -31 -4 -8 -6 -7
-6 5 -1 20 -31 23 -31 3 0 -8 5 -18 10 -21 18 -11 11 -45 -9 -45 -13 0 -21
-10 -26 -32 -5 -23 -9 -27 -12 -15 -5 20 -19 22 -29 5 -4 -6 0 -17 10 -23 15
-12 15 -13 -2 -17 -10 -3 -57 -3 -104 -1 -48 3 -135 -1 -195 -8 -59 -6 -119
-12 -133 -13 -14 -1 -28 -5 -31 -10 -8 -10 -29 1 -29 15 0 5 8 9 17 9 14 0 13
3 -5 16 -12 8 -31 13 -41 9 -13 -4 -21 0 -24 12 -4 14 -5 13 -6 -4 -1 -31 -17
-29 -23 1 -4 20 1 27 24 37 16 6 43 26 61 43 40 39 112 86 131 86 8 0 16 4 18
9 2 6 46 13 98 16 99 7 114 11 105 25 -3 4 12 4 32 0 20 -5 40 -7 44 -4z m219
-26 c0 -16 5 -30 10 -30 6 0 10 -4 10 -10 0 -12 -37 -13 -44 -1 -8 13 5 71 15
71 5 0 9 -13 9 -30z m383 1 c3 -16 12 -35 20 -43 8 -7 16 -34 19 -58 l5 -45
-44 4 -43 3 -1 -38 c-2 -37 -2 -37 -9 11 -12 72 -11 115 0 115 6 0 10 -7 10
-16 0 -14 2 -14 16 -3 12 10 15 25 11 56 -5 48 7 59 16 14z m-428 10 c3 -5 1
-12 -5 -16 -5 -3 -10 1 -10 9 0 18 6 21 15 7z m-7247 -113 c29 -29 -5 -78 -55
-78 -18 0 -23 6 -23 26 0 54 45 85 78 52z m8813 -25 c-8 -15 -10 -15 -11 -2 0
17 10 32 18 25 2 -3 -1 -13 -7 -23z m-4947 -27 c-6 -16 -24 -23 -24 -8 0 10
22 33 27 28 2 -2 1 -11 -3 -20z m2090 -52 c3 -8 2 -12 -4 -9 -6 3 -10 10 -10
16 0 14 7 11 14 -7z m1796 6 c0 -5 -5 -10 -11 -10 -5 0 -7 5 -4 10 3 6 8 10
11 10 2 0 4 -4 4 -10z m-9083 -50 c17 -10 37 -29 44 -41 25 -48 -31 -139 -97
-155 -53 -13 -108 60 -102 134 3 33 8 40 48 60 54 27 66 27 107 2z m7315 -5
c0 -5 -5 -11 -11 -13 -6 -2 -11 4 -11 13 0 9 5 15 11 13 6 -2 11 -8 11 -13z
m-3806 -66 c11 -19 -10 -29 -49 -22 -59 9 -48 22 30 32 6 0 15 -4 19 -10z
m-136 -9 c0 -5 -7 -10 -15 -10 -8 0 -15 5 -15 10 0 6 7 10 15 10 8 0 15 -4 15
-10z m4629 -92 c7 -29 17 -66 23 -81 16 -41 1 -50 -55 -33 -26 8 -47 11 -47 8
0 -4 -4 0 -9 7 -6 9 -6 22 0 32 5 10 9 31 9 48 0 20 6 32 19 36 11 3 22 12 25
20 10 28 22 15 35 -37z m431 8 c0 -21 -23 -47 -50 -58 -12 -4 -15 5 -15 47
l-1 52 33 -10 c24 -8 33 -16 33 -31z m-7773 -2 c55 -42 78 -108 53 -155 -13
-23 -60 -48 -124 -65 -41 -11 -55 -11 -82 1 -48 20 -53 51 -19 138 48 122 92
142 172 81z m8349 -1 c13 -14 22 -29 18 -32 -3 -3 -14 4 -25 17 -13 17 -24 22
-39 17 -21 -7 -28 10 -7 18 22 9 28 7 53 -20z m114 -13 c0 -5 -5 -10 -11 -10
-5 0 -7 5 -4 10 3 6 8 10 11 10 2 0 4 -4 4 -10z m-10293 -44 c59 -2 71 -17 43
-54 -13 -17 -20 -37 -17 -46 6 -16 84 -59 150 -82 36 -13 44 -12 84 6 58 25
84 25 117 -1 21 -17 26 -29 26 -65 0 -25 -4 -54 -10 -64 -11 -21 -60 -40 -105
-40 -19 0 -39 -8 -50 -20 -17 -19 -17 -26 -6 -84 15 -73 6 -102 -33 -112 -33
-8 -51 4 -128 83 -85 87 -104 112 -128 167 -15 32 -33 51 -64 70 -79 46 -136
136 -122 192 4 13 21 34 39 45 28 17 41 19 97 13 36 -4 84 -8 107 -8z m10233
0 c0 -3 -4 -8 -10 -11 -5 -3 -10 -1 -10 4 0 6 5 11 10 11 6 0 10 -2 10 -4z
m-1355 -16 c3 -5 1 -10 -4 -10 -6 0 -11 5 -11 10 0 6 2 10 4 10 3 0 8 -4 11
-10z m-8566 -14 c13 -16 4 -46 -14 -46 -7 0 -18 7 -25 15 -10 12 -10 18 0 30
15 19 24 19 39 1z m3887 -11 c13 -8 24 -30 28 -54 6 -42 48 -101 72 -101 23 0
43 -43 41 -87 -1 -30 5 -51 21 -72 12 -17 22 -35 22 -42 0 -6 7 -32 15 -58 8
-25 17 -58 20 -73 3 -18 17 -32 42 -45 61 -29 82 -101 26 -87 -16 4 -28 2 -34
-7 -14 -22 -12 -24 41 -43 51 -18 88 -53 117 -110 9 -17 27 -44 40 -60 14 -17
36 -53 49 -80 26 -56 86 -144 112 -164 13 -10 60 -13 192 -13 96 1 189 1 205
0 17 -1 45 4 63 12 26 11 36 11 52 1 11 -6 27 -12 35 -12 19 0 42 -52 57 -128
6 -32 17 -64 24 -73 53 -61 -59 -97 -311 -99 -38 0 -92 -6 -120 -13 -45 -12
-50 -16 -53 -45 -4 -41 21 -77 74 -108 38 -22 43 -29 38 -53 -8 -40 31 -68
107 -77 33 -4 62 -11 65 -15 3 -5 20 -9 39 -9 19 0 44 -4 57 -9 13 -5 35 -12
50 -15 48 -11 79 -124 41 -145 -10 -5 -57 -11 -105 -14 -47 -2 -91 -8 -97 -11
-27 -17 -1 -153 37 -198 8 -9 35 -21 61 -27 63 -13 101 -28 101 -40 0 -15
-111 -62 -132 -55 -10 3 -23 14 -29 26 -6 11 -26 37 -45 58 -19 20 -49 71 -68
112 -37 81 -73 118 -115 118 -26 0 -39 -6 -102 -47 -44 -29 -68 -29 -112 2
-20 13 -54 29 -75 34 -21 6 -46 17 -57 25 -31 24 -82 20 -110 -9 -14 -13 -25
-33 -25 -43 0 -11 -7 -25 -15 -32 -22 -19 -47 5 -39 37 5 20 1 30 -22 48 l-29
23 33 34 c40 43 41 68 1 92 -30 18 -31 20 -24 72 6 53 6 54 -30 87 l-37 34 18
39 c10 21 29 56 42 76 20 31 22 41 12 53 -7 8 -24 15 -39 16 -14 0 -48 8 -76
17 -47 16 -50 19 -56 57 -3 22 -10 50 -17 63 -7 12 -17 32 -24 45 -6 12 -19
50 -29 85 -16 59 -16 66 1 119 10 33 25 60 37 67 12 6 37 31 57 54 29 35 36
52 36 86 0 32 8 54 30 84 l29 41 -37 22 c-20 12 -49 33 -63 46 -22 21 -34 23
-95 21 -63 -3 -72 0 -107 26 -30 23 -52 31 -96 34 -57 4 -58 4 -90 -37 l-33
-42 28 -40 c39 -57 60 -69 124 -69 82 0 100 -16 100 -91 0 -47 -3 -59 -16 -59
-26 0 -56 20 -116 76 -39 38 -65 54 -83 54 -15 0 -38 9 -52 20 -14 11 -41 22
-62 26 -84 15 -126 68 -85 108 19 19 10 36 -19 36 -12 0 -37 9 -54 20 -37 22
-43 53 -17 81 21 23 12 46 -23 61 -39 17 -123 104 -123 129 0 34 29 78 55 85
14 3 61 -1 105 -10 102 -20 139 -20 162 1 10 9 27 17 38 18 10 1 29 13 40 28
20 25 27 27 90 27 66 0 71 2 117 41 26 23 50 46 51 50 5 13 25 11 48 -6z
m4674 -17 c0 -25 -18 -41 -36 -34 -17 7 -17 9 6 26 30 23 30 23 30 8z m728
-65 c35 -17 35 -17 10 -24 -13 -3 -36 -13 -49 -22 -13 -9 -46 -23 -74 -32 -48
-17 -49 -17 -66 4 -10 12 -28 21 -41 22 -12 0 -32 4 -42 8 -31 12 -2 24 68 28
34 3 72 10 86 18 35 18 66 18 108 -2z m-7406 -3 c24 -5 69 -15 102 -22 48 -10
62 -17 77 -42 10 -16 31 -35 47 -42 28 -11 29 -14 35 -104 l6 -93 -46 -58
c-58 -74 -81 -89 -139 -89 -26 0 -63 -5 -83 -11 -50 -15 -88 1 -106 44 -17 40
-29 51 -77 66 -45 15 -84 53 -91 89 -8 40 13 88 72 170 73 100 105 115 203 92z
m6903 0 c8 -13 -15 -13 -35 0 -12 8 -11 10 7 10 12 0 25 -4 28 -10z m559 -6
c5 -14 4 -15 -9 -4 -17 14 -19 20 -6 20 5 0 12 -7 15 -16z m1476 6 c0 -5 -4
-10 -10 -10 -5 0 -10 5 -10 10 0 6 5 10 10 10 6 0 10 -4 10 -10z m-2310 -34
c0 -14 5 -28 10 -31 17 -11 11 -25 -11 -25 -16 0 -20 5 -16 19 2 11 -3 24 -14
32 -26 18 -24 29 6 29 20 0 25 -5 25 -24z m-4312 2 c-7 -21 -36 -34 -49 -21
-6 6 -8 16 -5 22 10 15 59 14 54 -1z m6746 -24 c9 -4 16 -18 16 -34 0 -15 8
-34 18 -41 17 -13 17 -28 10 -199 -9 -233 -17 -313 -30 -321 -6 -4 -7 -12 -3
-18 4 -7 1 -18 -5 -26 -7 -8 -10 -31 -8 -50 3 -27 1 -34 -12 -32 -9 1 -14 -4
-12 -15 2 -11 -3 -18 -14 -18 -11 0 -14 -4 -8 -12 5 -7 9 -20 9 -29 0 -17 -29
-50 -42 -48 -21 4 -31 -3 -36 -21 -3 -11 -11 -20 -19 -20 -7 0 -22 -14 -33
-30 -18 -27 -21 -29 -32 -13 -12 16 -14 16 -26 -2 -13 -17 -14 -17 -20 4 -4
15 -1 21 11 21 12 0 13 3 5 11 -9 9 -23 6 -55 -10 -54 -27 -80 -43 -93 -58
-11 -13 -65 -6 -65 9 0 5 -4 7 -9 3 -5 -3 -12 -1 -15 3 -17 28 99 81 135 61
14 -7 25 -6 41 5 l22 15 -25 10 c-22 9 -20 10 16 10 60 1 175 68 175 101 0 6
8 22 17 37 26 39 34 170 19 298 l-8 70 -42 0 c-22 0 -45 -4 -49 -10 -5 -5 -5
1 -1 15 3 14 3 22 -1 18 -4 -4 -15 2 -24 13 -9 11 -26 21 -38 22 -12 0 -20 3
-18 5 2 3 -6 13 -18 23 -19 16 -20 20 -7 29 8 5 31 13 50 16 19 3 41 13 48 22
11 14 12 14 12 -1 0 -16 2 -16 25 -1 31 20 60 74 40 74 -18 0 -25 47 -9 61 11
9 14 8 14 -2 0 -16 33 18 43 44 7 18 24 21 51 11z m-1849 -14 c3 -6 -1 -13
-10 -16 -19 -8 -30 0 -20 15 8 14 22 14 30 1z m-580 -40 c3 -5 1 -10 -4 -10
-6 0 -11 5 -11 10 0 6 2 10 4 10 3 0 8 -4 11 -10z m-2947 -52 c13 -12 16 -34
5 -41 -12 -7 -134 20 -147 33 -19 19 15 31 74 24 30 -4 61 -11 68 -16z m-4254
-57 c27 -6 58 -18 68 -28 27 -24 40 -81 25 -112 -11 -24 -17 -26 -77 -26 -58
0 -69 -3 -105 -33 -52 -41 -147 -68 -186 -52 -14 6 -36 25 -49 42 -22 30 -22
32 -6 82 38 120 78 149 201 142 44 -2 102 -9 129 -15z m4836 -21 c0 -5 -4 -10
-10 -10 -5 0 -10 5 -10 10 0 6 5 10 10 10 6 0 10 -4 10 -10z m-1430 -25 c117
-18 120 -19 120 -45 0 -35 93 -60 127 -35 24 19 67 19 103 0 37 -19 38 -42 5
-57 -20 -9 -43 -9 -98 1 -95 16 -107 16 -142 9 -32 -7 -72 9 -47 19 6 2 12 18
12 34 0 26 -3 29 -30 29 -43 0 -89 -26 -100 -56 -8 -21 -15 -25 -38 -20 -39 8
-107 8 -189 0 -49 -4 -73 -3 -73 4 0 6 6 12 13 15 9 3 9 8 -2 21 -12 14 -24
16 -58 11 -45 -7 -83 7 -83 29 0 17 42 28 75 20 13 -3 46 -1 72 5 45 10 161
26 209 30 11 0 67 -6 124 -14z m6380 -76 c0 -6 -7 -42 -17 -80 -11 -46 -21
-69 -31 -69 -16 0 -12 49 10 123 10 33 38 53 38 26z m-240 -79 c0 -5 -4 -10
-10 -10 -5 0 -10 5 -10 10 0 6 5 10 10 10 6 0 10 -4 10 -10z m190 -100 c0 -5
-7 -10 -15 -10 -8 0 -15 5 -15 10 0 6 7 10 15 10 8 0 15 -4 15 -10z m-17 -57
c-7 -2 -19 -2 -25 0 -7 3 -2 5 12 5 14 0 19 -2 13 -5z m-9766 -38 c55 -21 78
-25 120 -19 49 6 54 4 83 -24 30 -31 30 -31 25 -120 -3 -49 -12 -105 -20 -125
-15 -36 -58 -77 -81 -77 -21 0 -34 -34 -27 -73 4 -29 1 -39 -18 -57 -45 -41
-102 -80 -127 -87 -36 -9 -93 12 -139 52 -45 38 -57 41 -114 23 -34 -10 -51
-8 -125 13 -106 30 -124 45 -124 105 0 80 20 102 122 139 38 13 49 22 58 50
13 40 35 49 99 40 59 -8 76 8 68 63 -10 58 1 82 47 103 54 25 73 24 153 -6z
m9371 -92 c20 -5 23 -11 20 -52 -3 -43 -4 -46 -35 -48 -24 -2 -31 1 -27 11 3
8 -8 23 -25 36 -17 12 -31 26 -31 32 0 18 34 38 55 32 11 -3 30 -8 43 -11z
m-8842 -27 c26 -26 34 -42 34 -71 0 -48 -12 -68 -55 -94 -39 -23 -65 -71 -65
-122 0 -43 -59 -104 -92 -94 -54 17 -64 58 -24 109 35 46 39 70 22 126 -19 64
-7 99 48 148 50 43 87 43 132 -2z m-2032 -25 c10 -16 -5 -41 -24 -41 -20 0
-30 17 -22 38 5 14 38 16 46 3z m4889 -20 c18 -18 -5 -31 -52 -31 -69 0 -111
10 -111 27 0 9 6 12 18 9 9 -3 24 -1 32 5 17 11 99 4 113 -10z m6341 -85 c-3
-21 -13 -40 -21 -43 -8 -3 -19 -16 -23 -29 -6 -14 -15 -21 -23 -18 -8 3 -20
-2 -27 -11 -11 -13 -10 -14 6 -9 19 7 19 7 1 -14 -11 -11 -16 -26 -12 -31 3
-6 1 -11 -5 -11 -6 0 -8 -5 -5 -10 4 -6 -10 -17 -29 -25 -20 -9 -36 -22 -36
-30 0 -8 -9 -23 -20 -32 -11 -10 -20 -29 -20 -44 0 -15 -7 -32 -15 -39 -12
-10 -15 -10 -15 0 0 8 -3 10 -7 6 -4 -4 -8 -13 -8 -19 0 -19 -38 -62 -60 -70
-18 -6 -18 -5 3 12 12 11 18 22 14 25 -9 5 -60 -41 -54 -50 6 -10 1 -24 -9
-24 -6 0 -8 9 -4 23 l6 22 -18 -21 c-10 -11 -30 -25 -45 -32 -16 -6 -28 -16
-28 -21 0 -5 -9 -7 -20 -4 -22 6 -26 18 -9 29 8 5 8 9 -1 14 -8 5 -9 13 -2 26
6 11 13 26 15 35 4 11 14 15 36 11 17 -2 34 -8 37 -13 8 -14 24 -10 24 6 0 8
7 15 15 15 8 0 15 7 15 15 0 8 7 15 15 15 14 0 15 10 9 60 -6 52 -4 60 10 60
9 0 16 5 16 11 0 8 4 8 15 -1 17 -14 75 -4 75 14 0 7 18 20 40 30 22 10 41 23
42 29 0 7 2 17 2 23 1 6 13 26 27 45 14 19 29 44 33 57 6 17 13 21 27 17 14
-5 20 -2 18 7 -4 33 1 52 12 41 6 -6 8 -25 3 -47z m-10476 -4 c21 -27 15 -70
-13 -88 -23 -15 -27 -15 -50 0 -35 23 -48 51 -35 77 21 38 71 44 98 11z
m-1168 8 c0 -5 -7 -10 -15 -10 -8 0 -15 5 -15 10 0 6 7 10 15 10 8 0 15 -4 15
-10z m10335 -111 c33 -10 37 -13 20 -19 -11 -4 -30 -4 -42 1 -14 5 -23 4 -26
-4 -2 -7 -7 -9 -11 -6 -7 7 3 39 13 39 3 0 24 -5 46 -11z m-1808 -5 c-3 -3
-12 -4 -19 -1 -8 3 -5 6 6 6 11 1 17 -2 13 -5z m933 -5 c0 -6 9 -9 19 -6 21 5
37 -18 21 -28 -6 -4 -10 -11 -10 -17 0 -7 17 -9 50 -5 38 5 50 3 50 -7 0 -19
-73 -91 -78 -77 -2 6 -24 11 -48 11 -41 0 -44 -2 -44 -26 0 -16 -5 -24 -12
-22 -16 6 -18 57 -3 66 15 9 36 71 29 84 -8 12 3 38 16 38 5 0 10 -5 10 -11z
m-940 -29 c13 -8 13 -10 -2 -10 -9 0 -20 5 -23 10 -8 13 5 13 25 0z m-83 -16
c-3 -3 -12 -4 -19 -1 -8 3 -5 6 6 6 11 1 17 -2 13 -5z m-207 -114 c0 -5 -2
-10 -4 -10 -3 0 -8 5 -11 10 -3 6 -1 10 4 10 6 0 11 -4 11 -10z m1268 -2 c19
-19 14 -30 -10 -26 -13 2 -24 11 -26 21 -4 20 18 23 36 5z m-3538 -78 c0 -5
-7 -10 -15 -10 -8 0 -15 5 -15 10 0 6 7 10 15 10 8 0 15 -4 15 -10z m3730 -34
c0 -3 -4 -8 -10 -11 -5 -3 -10 -1 -10 4 0 6 5 11 10 11 6 0 10 -2 10 -4z
m-295 -26 c-3 -5 0 -10 7 -10 7 -1 24 -10 37 -21 19 -16 22 -22 12 -32 -10 -9
-14 -8 -22 6 -6 9 -16 17 -24 17 -8 0 -17 5 -20 10 -7 12 0 40 10 40 4 0 3 -4
0 -10z m1210 -17 c-11 -3 -24 -11 -28 -19 -10 -18 -37 -18 -37 0 0 14 25 23
65 23 l20 1 -20 -5z m-1115 -84 c0 -5 -13 -15 -30 -20 l-30 -11 22 -18 c15
-12 34 -16 58 -13 49 5 58 -4 61 -65 4 -82 -5 -85 -181 -65 -59 7 -65 10 -66
31 -1 19 3 23 18 19 17 -5 19 -2 14 19 -4 14 -2 24 4 24 5 0 10 7 10 15 0 8
-5 15 -11 15 -23 0 -1 25 27 30 20 4 30 12 32 28 3 18 10 22 38 22 19 0 34 -5
34 -11z m-720 -25 c0 -2 -7 -4 -15 -4 -8 0 -15 4 -15 10 0 5 7 7 15 4 8 -4 15
-8 15 -10z m207 10 c-3 -3 -12 -4 -19 -1 -8 3 -5 6 6 6 11 1 17 -2 13 -5z
m243 -4 c0 -5 -7 -10 -15 -10 -8 0 -15 5 -15 10 0 6 7 10 15 10 8 0 15 -4 15
-10z m1320 -40 c0 -5 -9 -10 -20 -10 -11 0 -20 5 -20 10 0 6 9 10 20 10 11 0
20 -4 20 -10z m-2 -41 c-19 -13 -28 -11 -28 5 0 9 7 12 21 9 16 -4 17 -8 7
-14z m-2513 -10 c8 -25 1 -34 -20 -26 -19 8 -20 47 -1 47 8 0 18 -9 21 -21z
m1972 15 c-3 -3 -12 -4 -19 -1 -8 3 -5 6 6 6 11 1 17 -2 13 -5z m-7 -36 c-4
-39 0 -48 15 -42 22 9 45 -14 43 -41 -1 -13 -6 -21 -11 -18 -4 2 -14 -1 -22
-7 -11 -9 -18 -9 -30 4 -9 9 -12 16 -6 16 6 0 11 7 11 16 0 8 -4 13 -9 9 -16
-9 -22 13 -15 50 7 38 27 49 24 13z m-4255 -20 c23 -10 36 -47 18 -49 -41 -5
-106 -3 -110 4 -6 10 37 54 54 56 7 1 24 -4 38 -11z m4802 6 c-3 -3 -12 -4
-19 -1 -8 3 -5 6 6 6 11 1 17 -2 13 -5z m-951 -81 c-10 -10 -19 5 -10 18 6 11
8 11 12 0 2 -7 1 -15 -2 -18z m349 7 c3 -5 1 -10 -4 -10 -6 0 -11 5 -11 10 0
6 2 10 4 10 3 0 8 -4 11 -10z m159 -21 c-8 -14 -24 -10 -24 6 0 9 6 12 15 9 8
-4 12 -10 9 -15z m-9894 -65 c37 -25 49 -43 43 -64 -6 -21 -32 -26 -61 -11 -9
5 -32 13 -51 18 l-34 8 27 33 c32 36 42 39 76 16z m8325 7 c8 -14 -12 -23 -36
-16 -17 6 -19 9 -8 16 18 11 36 11 44 0z m83 -8 c16 -16 16 -16 -2 -10 -10 4
-25 2 -33 -4 -7 -7 -16 -9 -20 -5 -4 3 2 13 13 21 24 18 22 18 42 -2z m1389
-43 c5 -22 6 -40 2 -40 -5 0 -9 -9 -9 -20 0 -17 -7 -20 -40 -20 -29 0 -40 -4
-40 -15 0 -17 -9 -19 -29 -6 -16 10 -6 31 15 31 8 0 14 10 14 24 0 24 45 82
65 85 6 0 16 -17 22 -39z m-9262 -125 c29 -29 31 -46 8 -68 -32 -28 -78 -26
-93 4 -16 28 -4 68 23 79 33 13 36 12 62 -15z m551 0 c17 -26 12 -60 -11 -69
-18 -7 -65 31 -65 53 0 43 51 55 76 16z m7294 -6 c19 0 29 -3 22 -6 -22 -9 -2
-23 33 -23 45 0 116 -36 108 -56 -4 -10 -14 -13 -37 -9 -17 4 -58 2 -91 -3
-38 -6 -62 -6 -66 0 -7 10 -79 0 -79 -11 0 -4 5 -12 11 -18 6 -6 7 -13 2 -16
-11 -7 -85 28 -76 36 3 4 1 7 -5 7 -7 0 -12 -4 -12 -9 0 -5 -13 -4 -30 2 -29
11 -41 27 -20 27 5 0 7 6 4 14 -6 15 33 30 41 16 9 -14 48 -7 67 12 10 10 32
18 50 18 30 0 31 1 12 16 -18 15 -18 15 6 10 14 -3 41 -6 60 -7z m403 -5 c-4
-10 -1 -15 8 -14 58 9 64 -12 9 -30 -23 -8 -40 -20 -41 -29 -1 -13 -2 -13 -6
1 -4 16 -9 15 -54 -8 -53 -27 -113 -34 -131 -16 -15 15 8 43 28 35 8 -3 22 5
32 18 16 18 28 22 67 21 27 -1 53 -8 57 -15 6 -9 8 -9 8 1 0 7 -7 15 -15 18
-14 6 -13 8 2 20 25 18 44 18 36 -2z m847 6 c0 -5 -4 -10 -10 -10 -5 0 -10 5
-10 10 0 6 5 10 10 10 6 0 10 -4 10 -10z m70 -29 c-6 -12 -15 -21 -20 -21 -17
0 -11 39 8 49 21 12 27 -1 12 -28z m-1180 15 c0 -3 -4 -8 -10 -11 -5 -3 -10
-1 -10 4 0 6 5 11 10 11 6 0 10 -2 10 -4z m-7850 -26 c25 -25 25 -41 2 -70
-16 -19 -22 -21 -40 -11 -17 9 -22 21 -22 51 0 34 8 47 33 49 4 1 16 -8 27
-19z m9070 -25 c21 -26 -3 -39 -29 -16 -15 14 -18 21 -9 24 21 9 25 8 38 -8z
m-191 -77 c0 -18 -3 -27 -6 -20 -3 7 -25 13 -51 13 -34 2 -39 3 -17 6 17 3 34
11 38 19 15 27 37 16 36 -18z m-899 12 c0 -5 -4 -10 -9 -10 -5 0 -18 -3 -28
-6 -16 -5 -16 -4 1 10 23 18 36 20 36 6z m1119 -33 c-7 -12 -13 -24 -15 -26
-2 -2 2 41 5 57 1 2 6 0 11 -3 7 -4 6 -14 -1 -28z m-1049 18 c0 -10 -76 -41
-92 -37 -11 2 -18 -2 -18 -12 0 -9 -4 -16 -10 -16 -5 0 -10 11 -10 24 0 20 5
25 28 24 15 0 38 5 52 10 27 12 50 15 50 7z m63 -10 c-3 -9 -8 -14 -10 -11 -3
3 -2 9 2 15 9 16 15 13 8 -4z m-413 -20 c0 -8 -4 -15 -9 -15 -5 0 -11 7 -15
15 -3 9 0 15 9 15 8 0 15 -7 15 -15z m63 -15 c4 -16 0 -20 -19 -20 -28 0 -33
26 -6 33 9 3 18 5 18 6 1 0 4 -8 7 -19z m127 -5 c0 -31 -35 -35 -43 -6 -6 24
0 31 25 31 13 0 18 -7 18 -25z m1010 -20 c0 -8 -4 -15 -10 -15 -5 0 -10 7 -10
15 0 8 5 15 10 15 6 0 10 -7 10 -15z m115 -126 c-6 -18 -3 -19 34 -13 49 8 52
1 9 -20 -23 -12 -34 -13 -39 -5 -4 6 -12 8 -18 5 -6 -4 -9 -12 -6 -17 7 -11
-22 -11 -50 0 -17 7 -17 9 -3 17 9 5 16 16 16 24 -1 8 0 25 0 37 2 21 3 21 32
6 23 -11 29 -20 25 -34z m45 27 c0 -3 -4 -8 -10 -11 -5 -3 -10 -1 -10 4 0 6 5
11 10 11 6 0 10 -2 10 -4z m-450 -46 c0 -5 -4 -10 -10 -10 -5 0 -10 5 -10 10
0 6 5 10 10 10 6 0 10 -4 10 -10z m-803 -116 c2 -7 -6 -10 -19 -9 -13 1 -29 3
-36 4 -7 0 -10 6 -7 12 9 13 57 8 62 -7z m621 -24 c-3 -35 -18 -41 -18 -7 0
21 7 37 17 37 2 0 2 -13 1 -30z m-2604 5 c11 -8 34 -15 52 -15 17 0 37 -7 44
-15 9 -11 22 -14 47 -9 31 6 34 4 31 -12 -3 -17 -12 -19 -71 -18 -61 1 -67 0
-67 -18 0 -15 5 -18 16 -14 9 4 23 1 30 -5 9 -7 34 -10 64 -7 30 3 57 0 66 -7
15 -11 15 -14 0 -37 -15 -23 -24 -26 -109 -31 -50 -3 -111 -2 -133 3 -25 6
-79 6 -131 1 -144 -13 -182 0 -153 53 7 13 9 33 6 44 -5 14 3 28 29 51 20 17
39 31 43 31 4 1 47 3 96 5 49 2 91 7 94 10 9 9 26 5 46 -10z m213 -31 c-3 -3
-12 -4 -19 -1 -8 3 -5 6 6 6 11 1 17 -2 13 -5z m-669 -91 c-2 -11 -11 -17 -23
-15 -11 2 -39 3 -62 3 -59 -1 -54 17 5 22 26 2 55 4 65 5 13 1 17 -3 15 -15z
m-384 -12 c8 -12 -21 -34 -34 -26 -17 11 -11 35 9 35 11 0 22 -4 25 -9z m3843
-114 c-6 -20 -27 -19 -27 2 0 14 5 19 15 14 9 -3 14 -10 12 -16z m-5286 -46
c24 -19 25 -20 24 -199 0 -135 -4 -184 -14 -196 -30 -35 -121 -6 -134 43 -2
10 4 38 14 61 17 37 18 57 13 150 -7 107 -7 108 19 134 31 31 46 32 78 7z
m2606 -53 c6 -7 20 -46 33 -85 19 -63 20 -80 11 -124 -8 -34 -21 -60 -39 -78
-19 -17 -31 -41 -35 -68 -8 -48 -15 -51 -55 -26 -46 28 -52 42 -46 97 3 28 7
80 8 116 1 63 2 65 29 68 21 3 27 8 27 29 0 30 29 83 46 83 6 0 16 -6 21 -12z
m-2250 -34 c33 -35 34 -39 27 -88 -4 -28 -7 -68 -6 -90 2 -21 -4 -65 -13 -98
-8 -33 -15 -64 -15 -69 0 -5 23 -34 50 -64 65 -72 67 -104 9 -141 -57 -36 -96
-40 -150 -16 -72 32 -164 62 -191 62 -14 0 -40 -5 -57 -11 -27 -10 -36 -9 -48
4 -15 14 -15 18 1 41 9 14 41 41 72 61 50 33 60 35 120 33 86 -4 90 2 99 145
7 121 22 244 31 258 11 18 38 8 71 -27z m1131 -6 c88 -61 91 -65 85 -117 -4
-37 -1 -51 15 -71 19 -23 22 -24 37 -9 14 14 14 19 0 52 -8 20 -15 43 -15 51
0 46 169 110 225 84 32 -14 32 -43 1 -89 l-25 -36 29 -84 c16 -46 29 -90 30
-98 0 -26 42 -61 71 -61 29 0 79 -43 79 -68 0 -24 -33 -26 -71 -4 -21 12 -54
22 -73 22 -40 0 -154 -25 -191 -42 -19 -9 -28 -9 -37 0 -7 7 -22 12 -34 12
-17 0 -23 -8 -28 -35 -10 -49 -41 -63 -98 -44 -51 16 -58 15 -105 -17 -26 -17
-49 -24 -85 -24 -46 0 -50 2 -60 30 -14 42 -44 57 -68 35 -11 -10 -20 -29 -22
-44 -3 -22 -8 -26 -42 -29 -73 -6 -82 1 -89 65 -7 67 5 93 54 119 27 13 38 14
75 4 39 -11 46 -10 72 9 16 11 44 37 61 56 27 31 31 43 31 93 0 36 -6 66 -15
78 -20 26 -19 104 1 133 24 33 74 61 112 61 22 0 51 -12 80 -32z m-2022 7 c13
-9 23 -29 26 -53 7 -47 51 -119 82 -133 18 -9 31 -7 56 6 48 25 106 12 152
-35 21 -21 38 -45 38 -54 0 -18 -34 -37 -113 -62 -57 -18 -57 -18 -87 4 -38
29 -65 28 -95 -3 -29 -28 -33 -74 -10 -128 24 -58 20 -159 -10 -217 -14 -27
-25 -56 -25 -65 0 -26 -26 -5 -62 50 -31 48 -33 55 -33 145 0 52 -4 102 -10
110 -5 8 -28 41 -52 74 -64 87 -61 107 32 191 80 71 92 94 75 139 -16 44 -1
57 36 31z m5729 -3 c-3 -3 -11 0 -18 7 -9 10 -8 11 6 5 10 -3 15 -9 12 -12z
m-50 -22 c-5 -8 -11 -8 -17 -2 -6 6 -7 16 -3 22 5 8 11 8 17 2 6 -6 7 -16 3
-22z m-4628 4 c8 -22 -10 -49 -32 -49 -10 0 -22 7 -28 16 -15 24 -1 49 28 49
15 0 28 -7 32 -16z m576 -15 c28 -15 37 -28 37 -56 0 -50 -63 -70 -101 -32
-27 27 -22 70 11 86 31 15 27 15 53 2z m2474 -10 c2 -16 -1 -19 -9 -11 -5 5
-7 15 -4 21 10 15 12 14 13 -10z m-2793 -30 c33 -26 36 -84 6 -117 -55 -59
-135 21 -96 97 14 25 26 34 57 40 4 0 18 -8 33 -20z m-2414 -19 c22 -11 51
-20 65 -20 14 0 40 -7 57 -16 17 -9 47 -16 67 -16 43 0 67 -11 81 -38 9 -16 5
-33 -16 -80 -24 -54 -30 -60 -57 -60 -37 0 -94 -34 -103 -62 -7 -23 22 -53 98
-103 49 -33 52 -38 37 -95 -12 -46 -11 -55 10 -104 12 -31 26 -89 30 -130 4
-41 10 -78 14 -83 4 -4 22 -1 40 5 19 7 40 12 47 12 24 0 90 -52 90 -71 0 -41
-81 -52 -136 -18 l-34 21 -43 -20 c-23 -11 -49 -22 -57 -25 -8 -2 -23 -34 -34
-71 -30 -108 -78 -135 -172 -96 -27 12 -37 11 -67 -3 -51 -24 -72 -21 -107 16
-73 77 -49 125 78 157 23 6 42 14 42 18 0 3 -9 29 -19 57 -47 123 -48 130 -13
179 49 68 45 80 -64 190 -111 113 -135 121 -145 48 -6 -50 -32 -83 -51 -64 -7
7 -22 12 -34 12 -12 0 -28 7 -35 16 -11 14 -10 19 11 36 19 15 26 33 30 71 5
48 7 52 32 55 15 2 38 -4 50 -12 12 -9 30 -16 39 -16 17 0 99 82 99 99 0 5 15
27 34 49 24 30 35 55 40 93 13 93 27 104 96 69z m5197 -22 c5 -24 6 -61 1 -83
-4 -22 -7 -60 -8 -84 0 -31 -3 -42 -10 -35 -9 9 -16 170 -11 232 2 28 20 9 28
-30z m1223 32 c0 -5 -2 -10 -4 -10 -3 0 -8 5 -11 10 -3 6 -1 10 4 10 6 0 11
-4 11 -10z m-1136 -25 c-4 -8 -8 -15 -10 -15 -2 0 -4 7 -4 15 0 8 4 15 10 15
5 0 7 -7 4 -15z m-570 -3 c3 -5 -9 -25 -26 -46 -30 -37 -30 -39 -29 -144 1
-59 6 -141 13 -182 10 -69 9 -78 -11 -115 -26 -49 -27 -99 -3 -145 14 -25 17
-43 11 -68 -16 -70 -42 -66 -54 9 -10 55 -36 74 -102 70 -17 -1 -24 -9 -29
-36 -7 -37 -21 -46 -31 -20 -3 9 2 24 11 34 13 14 16 40 17 127 0 60 -5 132
-11 159 -20 89 -31 178 -26 199 4 12 17 34 30 50 19 23 34 30 82 35 54 6 58 8
59 32 1 14 5 31 9 37 8 14 82 16 90 4z m-5422 -77 c23 -71 22 -116 -5 -156
-28 -42 -60 -48 -100 -18 -17 12 -51 29 -75 38 -81 29 -83 81 -4 92 40 5 82
32 82 52 0 22 35 48 59 45 21 -2 29 -12 43 -53z m6948 45 c0 -5 -7 -10 -15
-10 -8 0 -15 5 -15 10 0 6 7 10 15 10 8 0 15 -4 15 -10z m-879 -54 c5 3 9 0 9
-6 0 -6 4 -9 9 -6 5 3 11 -1 15 -9 6 -18 1 -19 -25 -5 -11 6 -19 7 -19 1 0 -5
7 -11 15 -15 8 -3 15 -16 15 -30 0 -16 7 -26 23 -30 18 -5 19 -8 7 -15 -12 -9
-12 -11 3 -17 10 -3 17 -14 16 -23 -4 -28 12 -51 35 -51 37 0 76 -23 70 -42
-3 -9 3 -21 13 -28 14 -9 15 -10 2 -6 -13 3 -16 -2 -15 -20 0 -13 7 -26 14
-29 7 -3 11 -9 7 -15 -6 -10 56 -53 114 -78 26 -11 31 -17 19 -20 -25 -5 -22
-19 5 -33 12 -7 28 -20 35 -31 16 -23 32 -23 32 -1 0 13 3 14 12 5 10 -10 10
-17 0 -32 -7 -12 -8 -20 -2 -20 5 0 10 -7 10 -16 0 -9 5 -12 12 -8 8 5 9 2 5
-9 -9 -24 12 -75 34 -82 11 -4 17 -10 15 -14 -7 -10 52 -43 64 -36 6 3 10 14
10 23 0 13 3 13 12 4 10 -10 10 -17 0 -32 -7 -12 -8 -20 -2 -20 5 0 10 -7 10
-16 0 -8 5 -12 11 -8 7 4 9 0 5 -13 -4 -12 -1 -25 9 -33 8 -7 15 -9 15 -6 0 4
9 2 21 -4 16 -9 18 -14 8 -26 -9 -11 -8 -14 6 -14 9 0 35 -16 58 -35 22 -19
47 -35 55 -35 9 0 12 -6 8 -16 -4 -10 4 -19 25 -28 17 -7 30 -16 30 -19 -1 -9
1 -9 23 -1 25 10 37 -13 30 -58 l-5 -36 63 -4 c35 -2 68 0 74 4 20 15 118 23
110 10 -4 -7 -2 -12 3 -12 6 0 11 -7 11 -15 0 -11 -11 -15 -38 -15 -39 0 -97
-29 -59 -30 9 0 17 5 17 11 0 7 12 9 36 4 22 -4 39 -2 43 4 10 16 93 15 133
-3 29 -12 36 -13 32 -3 -3 8 3 20 12 28 14 11 18 11 30 -6 14 -18 14 -18 14 3
0 11 10 28 23 37 l22 16 -27 -6 c-16 -4 -37 -1 -55 9 l-28 15 38 1 c27 0 37 4
37 16 0 14 1 14 16 0 24 -24 74 -17 74 10 0 10 12 14 38 14 26 0 41 6 49 20 8
12 9 21 3 25 -6 3 -10 -1 -10 -9 0 -19 -4 -19 -53 -2 -50 17 -48 30 5 37 54 7
88 19 88 30 0 5 9 9 20 9 11 0 20 5 20 10 0 13 -16 13 -42 -1 -12 -7 -18 -7
-14 -1 3 6 2 12 -3 14 -6 1 1 25 14 53 18 37 21 52 13 62 -9 11 -6 12 16 3 15
-5 41 -10 57 -10 22 0 29 5 29 20 0 13 -7 20 -20 20 -24 0 -27 34 -6 56 21 20
26 18 26 -15 0 -41 25 -47 43 -11 13 25 13 31 0 50 -14 20 -13 22 6 27 21 5
21 6 4 26 -17 20 -17 20 1 14 15 -6 17 -3 13 13 -3 11 -1 18 3 15 5 -3 11 -1
15 5 3 5 13 10 21 10 8 0 13 -4 10 -9 -3 -5 0 -11 8 -14 9 -4 12 -14 9 -28 -5
-19 -3 -21 15 -17 16 4 22 2 22 -9 0 -9 -6 -13 -15 -9 -10 4 -15 -1 -15 -15 0
-28 45 -43 84 -28 l29 13 -39 16 c-36 16 -37 17 -16 24 12 4 22 14 22 22 0 8
7 14 15 14 8 0 15 9 15 20 0 13 -7 20 -20 20 -11 0 -20 -4 -20 -10 0 -13 -27
-13 -35 1 -4 5 0 18 9 28 9 10 16 23 16 29 0 6 7 18 16 27 11 11 13 19 6 28
-8 9 -3 12 20 13 20 1 25 -2 16 -7 -9 -6 -8 -9 7 -8 21 0 67 17 51 18 -13 1
35 41 49 41 6 0 15 -3 18 -7 11 -10 57 -13 57 -2 0 5 7 9 15 9 8 0 15 5 15 10
0 6 11 8 25 4 20 -5 24 -3 19 10 -3 9 -16 16 -28 16 -12 0 -27 9 -34 20 -11
18 -10 20 18 20 19 0 30 5 30 14 0 8 6 16 12 18 18 6 39 -18 32 -36 -4 -11 0
-16 14 -16 15 0 19 5 15 20 -4 14 0 20 11 20 9 0 15 3 14 8 -1 4 4 23 11 42
16 41 18 47 20 60 0 6 7 10 14 9 27 -3 37 2 37 19 0 13 2 14 9 3 8 -13 22 -14
81 -8 18 1 28 -5 35 -20 6 -14 19 -23 32 -23 14 0 28 -11 40 -30 19 -33 34
-38 53 -15 16 20 29 19 37 -2 4 -10 11 -21 17 -25 6 -4 7 -10 2 -15 -4 -4 -12
0 -17 10 -12 21 -29 22 -29 2 0 -9 -9 -15 -25 -15 -38 0 -30 -17 12 -25 39 -7
93 -40 93 -55 0 -6 -11 -12 -25 -16 -27 -7 -25 -24 3 -24 10 0 25 -9 35 -20 9
-11 12 -20 6 -20 -6 0 -8 -9 -4 -20 4 -11 2 -20 -4 -20 -6 0 -11 -10 -11 -22
1 -22 1 -23 15 -4 14 18 15 15 15 -37 0 -54 1 -57 25 -57 23 0 24 -2 15 -20
-6 -11 -22 -23 -35 -26 -29 -7 -31 -19 -10 -40 8 -9 15 -11 15 -5 0 6 7 11 16
11 12 0 14 -5 9 -17 -21 -50 -18 -63 28 -108 25 -24 42 -47 37 -50 -4 -3 -11
1 -13 7 -3 7 -6 3 -6 -9 -1 -16 6 -24 24 -29 27 -7 25 -19 -2 -19 -35 0 -22
-23 16 -30 45 -7 56 -25 17 -25 -36 0 -41 -17 -6 -22 17 -3 30 -1 30 4 0 4 18
8 40 8 29 0 40 -4 40 -15 0 -11 -11 -15 -40 -15 -22 0 -40 -4 -40 -10 0 -5 18
-10 40 -10 22 0 40 5 40 10 0 6 5 10 11 10 15 0 39 26 32 34 -4 3 -16 6 -27 7
-13 0 -5 6 19 14 l40 13 -35 1 c-19 1 -42 6 -50 11 -11 7 -8 9 14 7 25 -2 30
3 45 41 17 48 46 62 87 43 15 -6 24 -7 24 -1 0 6 18 10 40 10 22 0 40 4 40 9
0 5 17 12 37 16 21 4 42 10 48 13 29 19 87 4 81 -21 -1 -7 -1 -9 1 -4 8 13 30
7 48 -13 17 -18 17 -20 2 -14 -9 3 -17 10 -17 15 0 5 -6 9 -12 9 -7 -1 2 -14
21 -30 19 -16 38 -27 43 -24 4 3 5 -1 2 -9 -6 -16 23 -44 33 -33 4 4 1 12 -7
17 -13 9 -13 10 0 6 8 -2 14 -12 14 -21 -1 -9 2 -16 7 -16 5 0 6 -6 3 -14 -3
-9 3 -17 15 -21 12 -3 21 -11 21 -17 0 -6 9 -8 19 -5 11 3 22 -1 25 -8 3 -8
14 -19 26 -25 17 -9 22 -8 29 11 5 16 10 19 15 10 12 -19 -49 -70 -224 -186
-234 -154 -643 -343 -945 -435 -38 -12 -77 -25 -86 -30 -23 -12 -148 -45 -344
-90 -49 -12 -124 -30 -165 -40 -87 -22 -252 -55 -325 -65 -27 -4 -81 -13 -120
-20 -38 -7 -77 -13 -85 -13 -8 -1 -51 -6 -95 -12 -223 -29 -644 -41 -770 -21
-227 37 -236 40 -282 88 -18 18 -37 33 -43 33 -5 0 -10 11 -10 24 0 13 -9 45
-19 70 -17 38 -19 54 -11 103 6 32 15 74 20 93 6 19 14 103 17 185 5 126 3
152 -9 163 -12 10 -18 8 -33 -8 -17 -19 -17 -21 -1 -39 19 -21 14 -41 -10 -41
-9 0 -14 11 -14 31 0 20 -4 28 -11 23 -8 -5 -10 -43 -7 -125 l5 -118 -34 -48
c-19 -26 -48 -73 -63 -104 -32 -61 -84 -111 -108 -101 -10 3 -13 1 -8 -6 4 -7
-15 -22 -53 -41 -32 -17 -61 -34 -63 -38 -12 -28 -118 -98 -195 -129 -48 -19
-102 -44 -119 -55 -38 -23 -70 -25 -78 -3 -3 9 -6 35 -6 59 0 24 -7 77 -15
117 -12 54 -13 84 -6 118 13 60 -1 347 -19 380 -7 14 -28 42 -46 62 -19 21
-50 70 -70 110 -20 39 -50 89 -66 109 -29 36 -30 43 -33 143 -4 130 3 133 86
45 45 -48 59 -69 61 -98 4 -49 29 -52 77 -8 52 47 116 59 294 56 79 -1 153 2
167 8 14 6 56 11 95 12 38 1 81 8 96 15 22 11 31 11 54 -1 15 -8 38 -12 51 -9
20 5 24 13 24 46 0 57 -49 281 -89 405 -10 33 -22 77 -26 99 -3 21 -10 46 -15
55 -5 9 -19 59 -31 111 -12 52 -26 99 -30 105 -5 5 -9 20 -9 34 l0 25 31 -32
c17 -18 35 -29 40 -26z m-4681 23 c13 -23 0 -46 -35 -59 -42 -16 -75 36 -43
68 20 20 66 15 78 -9z m3300 -29 c15 -15 20 -33 20 -77 0 -32 -6 -65 -13 -73
-18 -22 -94 -80 -106 -80 -17 0 -51 52 -51 77 0 15 15 39 40 64 22 22 40 45
40 52 0 17 29 57 41 57 5 0 18 -9 29 -20z m1880 -40 c0 -5 -4 -10 -10 -10 -5
0 -10 5 -10 10 0 6 5 10 10 10 6 0 10 -4 10 -10z m-3502 -107 c5 -10 12 -34
15 -54 3 -20 20 -57 37 -82 18 -25 30 -52 27 -60 -9 -25 -116 -38 -118 -14 -1
6 0 26 1 44 1 20 -10 52 -26 82 l-28 50 24 25 c27 30 55 33 68 9z m-150 -40
c4 -29 -30 -49 -48 -28 -6 8 -9 23 -5 35 9 28 49 23 53 -7z m5764 -3 c-3 -29
-7 -34 -21 -25 -6 3 -11 17 -11 31 0 19 5 25 18 22 11 -3 16 -12 14 -28z
m-3653 -72 c1 -27 -3 -48 -9 -48 -6 0 -10 29 -9 68 1 77 17 59 18 -20z m-113
38 c3 -8 7 -99 9 -203 2 -103 6 -225 8 -271 4 -87 -5 -108 -38 -96 -12 5 -15
14 -12 33 3 14 1 48 -5 75 -8 39 -7 55 7 86 16 34 16 40 1 68 -13 25 -16 60
-15 159 1 123 8 163 30 163 5 0 12 -6 15 -14z m-4806 -78 c38 -41 14 -108 -41
-108 -28 0 -52 -36 -46 -68 4 -18 1 -37 -7 -48 -12 -15 -18 -16 -38 -7 -26 12
-78 90 -78 117 0 9 18 28 40 42 22 15 40 30 40 34 0 4 11 19 25 34 30 33 76
35 105 4z m3959 -37 c20 -10 52 -23 71 -28 l35 -9 -64 -13 c-49 -10 -70 -10
-92 -1 -42 18 -39 65 5 69 4 1 25 -8 45 -18z m1833 -7 c-2 -10 -9 -25 -16 -32
-10 -11 -15 -11 -24 1 -9 10 -8 19 4 36 18 26 41 23 36 -5z m-1574 -46 c3 -25
-22 -78 -37 -78 -4 0 -21 19 -39 42 l-32 42 22 13 c13 7 37 12 53 10 24 -2 31
-7 33 -29z m-4480 -116 c4 -36 -21 -58 -75 -67 -40 -6 -43 -5 -58 25 -24 47
-22 90 4 111 22 18 24 18 74 -11 41 -23 53 -35 55 -58z m6276 -85 c35 -25 14
-177 -23 -177 -13 0 -29 48 -36 106 -5 40 -3 55 10 68 20 19 26 20 49 3z
m1633 -23 c-3 -3 -12 -4 -19 -1 -8 3 -5 6 6 6 11 1 17 -2 13 -5z m-8321 -99
c6 -16 -12 -45 -27 -45 -10 0 -12 44 -2 53 11 11 23 8 29 -8z m1949 -25 c34
-38 -15 -111 -64 -95 -25 8 -38 64 -22 94 15 27 62 28 86 1z m993 -42 c9 -17
27 -42 40 -55 25 -27 28 -38 8 -30 -8 3 -22 -1 -33 -8 -29 -23 -50 -17 -77 18
-30 39 -33 63 -9 89 25 27 52 22 71 -14z m-2382 -51 c33 -28 26 -42 -25 -58
-65 -19 -107 23 -65 65 22 23 59 20 90 -7z m372 -29 c16 -16 15 -63 0 -76 -7
-5 -36 -13 -65 -17 -45 -6 -53 -4 -62 14 -16 29 -14 48 9 71 23 23 98 28 118
8z m-1108 -23 c0 -8 -7 -15 -15 -15 -8 0 -15 7 -15 15 0 8 7 15 15 15 8 0 15
-7 15 -15z m8340 -25 c8 -5 11 -10 5 -10 -5 0 -17 5 -25 10 -8 5 -10 10 -5 10
6 0 17 -5 25 -10z m-262 -166 c2 -1 -5 -6 -15 -12 -26 -13 -113 -3 -113 13 0
10 15 12 63 8 34 -3 64 -7 65 -9z m-7954 -30 c21 -21 20 -27 -8 -53 -22 -20
-31 -22 -78 -16 -89 12 -128 52 -70 73 44 17 138 14 156 -4z m192 -5 c10 -17
-13 -36 -27 -22 -12 12 -4 33 11 33 5 0 12 -5 16 -11z m5428 -847 c17 -49 17
-53 2 -77 -26 -39 -44 -41 -77 -9 -36 34 -37 58 -3 107 34 50 54 45 78 -21z
m-284 38 c0 -5 -4 -10 -10 -10 -5 0 -10 5 -10 10 0 6 5 10 10 10 6 0 10 -4 10
-10z m1120 -110 c0 -5 -5 -10 -11 -10 -5 0 -7 5 -4 10 3 6 8 10 11 10 2 0 4
-4 4 -10z m-3350 -8470 c0 -5 -2 -10 -4 -10 -3 0 -8 5 -11 10 -3 6 -1 10 4 10
6 0 11 -4 11 -10z m128 -11 c-11 -6 -24 -6 -34 -1 -12 7 -8 9 18 10 26 1 30
-1 16 -9z m752 -409 c0 -5 -2 -10 -4 -10 -3 0 -8 5 -11 10 -3 6 -1 10 4 10 6
0 11 -4 11 -10z m-273 -92 c-3 -8 -6 -5 -6 6 -1 11 2 17 5 13 3 -3 4 -12 1
-19z m10 -50 c-3 -8 -6 -5 -6 6 -1 11 2 17 5 13 3 -3 4 -12 1 -19z m103 -258
c0 -5 -6 -10 -14 -10 -8 0 -18 5 -21 10 -3 6 3 10 14 10 12 0 21 -4 21 -10z
m377 -707 c-3 -10 -5 -2 -5 17 0 19 2 27 5 18 2 -10 2 -26 0 -35z m8363 7 c0
-5 -4 -10 -10 -10 -5 0 -10 -8 -11 -17 0 -15 -2 -15 -8 2 -5 11 -7 23 -4 28 6
11 33 9 33 -3z m1737 -512 c-3 -8 -6 -5 -6 6 -1 11 2 17 5 13 3 -3 4 -12 1
-19z m-1737 -322 c0 -3 -4 -8 -10 -11 -5 -3 -10 -1 -10 4 0 6 5 11 10 11 6 0
10 -2 10 -4z m1675 -716 c3 -5 1 -10 -4 -10 -6 0 -11 5 -11 10 0 6 2 10 4 10
3 0 8 -4 11 -10z m-1825 -250 c0 -22 -17 -35 -23 -18 -6 19 4 49 14 42 5 -3 9
-14 9 -24z m-73 -352 c-2 -13 -4 -3 -4 22 0 25 2 35 4 23 2 -13 2 -33 0 -45z"/>
<path d="M10140 17770 c0 -5 5 -10 10 -10 6 0 10 5 10 10 0 6 -4 10 -10 10 -5
0 -10 -4 -10 -10z"/>
<path d="M4527 17113 c-3 -5 3 -19 12 -32 14 -18 29 -24 61 -25 52 -1 63 17
23 37 -38 20 -90 30 -96 20z"/>
<path d="M4325 16870 c-4 -7 -3 -16 3 -22 14 -14 45 -2 40 15 -6 16 -34 21
-43 7z"/>
<path d="M5261 15977 c-8 -10 0 -30 34 -83 25 -38 45 -72 45 -76 0 -5 -16 -8
-35 -8 -43 0 -44 -10 -2 -31 21 -11 44 -37 68 -80 44 -77 77 -104 114 -95 32
8 39 25 30 74 -5 27 -23 53 -66 96 -32 32 -56 63 -53 68 12 19 -18 108 -43
128 -29 23 -75 26 -92 7z m104 -167 c3 -5 1 -10 -4 -10 -6 0 -11 5 -11 10 0 6
2 10 4 10 3 0 8 -4 11 -10z"/>
<path d="M5262 15498 c3 -7 13 -15 22 -16 12 -3 17 1 14 10 -3 7 -13 15 -22
16 -12 3 -17 -1 -14 -10z"/>
<path d="M10138 17163 c7 -3 16 -2 19 1 4 3 -2 6 -13 5 -11 0 -14 -3 -6 -6z"/>
<path d="M11591 16054 c0 -11 3 -14 6 -6 3 7 2 16 -1 19 -3 4 -6 -2 -5 -13z"/>
<path d="M9780 15690 c0 -25 -5 -40 -12 -40 -10 0 -9 -3 1 -9 7 -5 10 -14 7
-20 -4 -6 -1 -11 6 -11 9 0 14 19 16 60 2 37 -1 60 -7 60 -6 0 -11 -18 -11
-40z"/>
<path d="M8677 15253 c-24 -6 -11 -23 19 -23 15 0 24 6 24 15 0 15 -9 17 -43
8z"/>
<path d="M6650 14750 c0 -5 14 -10 30 -10 17 0 30 5 30 10 0 6 -13 10 -30 10
-16 0 -30 -4 -30 -10z"/>
<path d="M6371 14346 c-7 -8 -11 -34 -9 -57 5 -71 52 -79 88 -16 13 24 13 28
-6 54 -24 32 -55 40 -73 19z"/>
<path d="M11010 13900 c-12 -8 -11 -10 8 -10 12 0 22 5 22 10 0 13 -11 13 -30
0z"/>
<path d="M10423 13770 c0 -25 2 -35 4 -22 2 12 2 32 0 45 -2 12 -4 2 -4 -23z"/>
<path d="M11065 13799 c-4 -6 -5 -13 -2 -16 7 -7 27 6 27 18 0 12 -17 12 -25
-2z"/>
<path d="M10335 13720 c4 -6 11 -8 16 -5 14 9 11 15 -7 15 -8 0 -12 -5 -9 -10z"/>
<path d="M10335 13690 c-4 -6 -3 -16 3 -22 6 -6 12 -6 17 2 4 6 3 16 -3 22 -6
6 -12 6 -17 -2z"/>
<path d="M10171 13583 c1 -39 2 -43 9 -23 12 36 12 70 0 70 -5 0 -10 -21 -9
-47z"/>
<path d="M11040 13580 c0 -5 5 -10 10 -10 6 0 10 5 10 10 0 6 -4 10 -10 10 -5
0 -10 -4 -10 -10z"/>
<path d="M10085 13500 c-4 -6 -3 -16 3 -22 6 -6 12 -6 17 2 4 6 3 16 -3 22 -6
6 -12 6 -17 -2z"/>
<path d="M11440 13385 c0 -30 11 -32 33 -7 23 25 21 32 -8 32 -20 0 -25 -5
-25 -25z"/>
<path d="M10015 13390 c4 -6 11 -8 16 -5 14 9 11 15 -7 15 -8 0 -12 -5 -9 -10z"/>
<path d="M8497 13322 c-10 -10 -17 -23 -17 -29 0 -16 51 -63 61 -57 13 7 11
48 -3 79 -13 30 -20 31 -41 7z"/>
<path d="M9205 13180 c-3 -5 1 -10 10 -10 9 0 13 5 10 10 -3 6 -8 10 -10 10
-2 0 -7 -4 -10 -10z"/>
<path d="M9908 13163 c12 -2 30 -2 40 0 9 3 -1 5 -23 4 -22 0 -30 -2 -17 -4z"/>
<path d="M9848 13143 c6 -2 18 -2 25 0 6 3 1 5 -13 5 -14 0 -19 -2 -12 -5z"/>
<path d="M8160 12641 c0 -17 5 -31 10 -31 6 0 10 11 10 24 0 14 -4 28 -10 31
-6 4 -10 -7 -10 -24z"/>
<path d="M10885 12660 c-8 -13 5 -13 25 0 13 8 13 10 -2 10 -9 0 -20 -4 -23
-10z"/>
<path d="M10718 12613 c7 -3 16 -2 19 1 4 3 -2 6 -13 5 -11 0 -14 -3 -6 -6z"/>
<path d="M8172 12555 c0 -16 2 -22 5 -12 2 9 2 23 0 30 -3 6 -5 -1 -5 -18z"/>
<path d="M8753 21183 c9 -2 25 -2 35 0 9 3 1 5 -18 5 -19 0 -27 -2 -17 -5z"/>
<path d="M9650 21106 c0 -2 8 -10 18 -17 15 -13 16 -12 3 4 -13 16 -21 21 -21
13z"/>
<path d="M10048 21093 c6 -2 10 -9 6 -14 -6 -10 24 -44 32 -36 8 8 -27 57 -40
56 -7 0 -6 -2 2 -6z"/>
<path d="M10100 21016 c0 -9 5 -16 10 -16 6 0 10 4 10 9 0 6 -4 13 -10 16 -5
3 -10 -1 -10 -9z"/>
<path d="M10240 21012 c0 -12 19 -26 26 -19 2 2 -2 10 -11 17 -9 8 -15 8 -15
2z"/>
<path d="M10370 20895 c0 -5 5 -17 10 -25 5 -8 10 -10 10 -5 0 6 -5 17 -10 25
-5 8 -10 11 -10 5z"/>
<path d="M10160 20858 c0 -9 5 -20 11 -23 17 -11 18 -2 3 19 -12 17 -14 17
-14 4z"/>
<path d="M10676 20613 c-4 -9 -2 -21 4 -27 7 -7 10 -2 10 17 0 31 -5 34 -14
10z"/>
<path d="M10877 20220 c-14 -17 -15 -20 -2 -20 9 0 18 7 22 15 9 24 -1 27 -20
5z"/>
<path d="M10935 20100 c-3 -5 -1 -10 4 -10 6 0 11 5 11 10 0 6 -2 10 -4 10 -3
0 -8 -4 -11 -10z"/>
<path d="M10968 20103 c7 -3 16 -2 19 1 4 3 -2 6 -13 5 -11 0 -14 -3 -6 -6z"/>
<path d="M7119 20083 c-13 -15 -12 -15 9 -4 23 12 28 21 13 21 -5 0 -15 -7
-22 -17z"/>
<path d="M11470 19905 c0 -17 18 -19 38 -6 11 7 10 10 -3 15 -26 10 -35 7 -35
-9z"/>
<path d="M7021 19817 c-13 -21 -12 -21 5 -5 10 10 16 20 13 22 -3 3 -11 -5
-18 -17z"/>
<path d="M11780 19810 c0 -5 15 -10 33 -9 27 0 29 2 12 9 -28 12 -45 12 -45 0z"/>
<path d="M9225 19640 c-3 -5 -1 -10 4 -10 6 0 11 5 11 10 0 6 -2 10 -4 10 -3
0 -8 -4 -11 -10z"/>
<path d="M8888 19586 c-10 -7 -15 -16 -11 -19 12 -13 61 -7 67 8 3 8 1 15 -3
15 -5 0 -15 2 -23 5 -7 2 -21 -2 -30 -9z"/>
<path d="M8716 19576 c7 -18 54 -22 54 -5 0 5 -8 9 -17 7 -10 -1 -24 1 -30 5
-9 6 -11 3 -7 -7z"/>
<path d="M9658 19563 c7 -3 16 -2 19 1 4 3 -2 6 -13 5 -11 0 -14 -3 -6 -6z"/>
<path d="M8365 19370 c-3 -5 -1 -10 4 -10 6 0 11 5 11 10 0 6 -2 10 -4 10 -3
0 -8 -4 -11 -10z"/>
<path d="M10040 19326 c0 -3 7 -12 16 -20 18 -19 34 -13 34 12 0 13 -2 14 -9
3 -6 -9 -11 -10 -15 -2 -7 11 -26 16 -26 7z"/>
<path d="M10110 19315 c0 -8 5 -15 10 -15 6 0 10 7 10 15 0 8 -4 15 -10 15 -5
0 -10 -7 -10 -15z"/>
<path d="M10200 19190 c0 -5 7 -7 15 -4 8 4 15 8 15 10 0 2 -7 4 -15 4 -8 0
-15 -4 -15 -10z"/>
<path d="M12110 18943 c0 -10 4 -24 9 -32 13 -21 24 5 11 29 -13 25 -20 26
-20 3z"/>
<path d="M7805 18789 c-10 -15 3 -25 16 -12 7 7 7 13 1 17 -6 3 -14 1 -17 -5z"/>
<path d="M7826 18711 c-4 -7 -5 -15 -2 -18 9 -9 19 4 14 18 -4 11 -6 11 -12 0z"/>
<path d="M7794 18659 c-8 -14 11 -33 25 -25 11 7 4 36 -9 36 -5 0 -12 -5 -16
-11z"/>
<path d="M10160 18500 c0 -5 5 -10 11 -10 5 0 7 5 4 10 -3 6 -8 10 -11 10 -2
0 -4 -4 -4 -10z"/>
<path d="M5500 18090 c0 -5 5 -10 10 -10 6 0 10 5 10 10 0 6 -4 10 -10 10 -5
0 -10 -4 -10 -10z"/>
<path d="M5970 18040 c0 -5 5 -10 10 -10 6 0 10 5 10 10 0 6 -4 10 -10 10 -5
0 -10 -4 -10 -10z"/>
<path d="M7460 18030 c0 -5 5 -10 10 -10 6 0 10 5 10 10 0 6 -4 10 -10 10 -5
0 -10 -4 -10 -10z"/>
<path d="M5790 17930 c0 -5 5 -10 10 -10 6 0 10 5 10 10 0 6 -4 10 -10 10 -5
0 -10 -4 -10 -10z"/>
<path d="M5675 17920 c-4 -7 -3 -16 3 -22 14 -14 45 -2 40 15 -6 16 -34 21
-43 7z"/>
<path d="M5850 17920 c0 -5 23 -10 50 -10 28 0 50 5 50 10 0 6 -22 10 -50 10
-27 0 -50 -4 -50 -10z"/>
<path d="M7659 17831 c-13 -10 -30 -16 -37 -14 -7 3 -24 -2 -37 -11 -13 -9
-34 -16 -45 -16 -12 0 -18 -4 -15 -10 3 -5 0 -7 -9 -4 -10 4 -24 -9 -42 -38
-15 -24 -35 -55 -46 -70 -28 -42 -21 -55 12 -23 26 25 33 27 41 15 9 -12 10
-12 5 3 -4 12 1 20 17 26 12 5 24 7 25 6 2 -2 -15 -31 -37 -64 -60 -88 -63
-99 -20 -75 19 10 36 22 37 27 7 15 42 6 54 -13 15 -24 38 -26 38 -4 0 8 -5
12 -11 9 -6 -4 -13 2 -16 14 -3 13 -14 21 -27 21 -20 1 -20 2 4 15 14 8 36 14
50 15 l24 0 -22 -16 c-27 -19 -19 -38 13 -30 13 3 36 1 50 -4 23 -9 26 -8 21
5 -3 9 0 15 10 15 9 0 18 -9 21 -19 4 -17 16 -19 156 -18 134 1 156 -2 181
-18 16 -11 39 -18 52 -17 12 2 28 -4 37 -12 8 -8 17 -12 21 -9 3 3 21 -6 40
-21 19 -14 39 -26 45 -26 12 0 41 -28 41 -40 0 -5 -10 -14 -22 -21 -18 -10
-24 -8 -39 12 -14 19 -19 20 -19 8 0 -9 7 -19 15 -23 8 -3 15 -12 15 -21 0
-21 32 -19 56 3 11 11 23 15 29 10 5 -5 19 -15 30 -24 20 -14 19 -15 -5 -13
-40 2 -50 0 -50 -12 0 -6 6 -9 14 -6 8 3 20 -1 28 -10 12 -15 10 -16 -17 -9
-16 4 -31 12 -33 17 -2 5 -17 9 -32 9 -16 0 -32 5 -35 10 -9 15 -185 5 -293
-16 -86 -17 -230 -78 -263 -113 -8 -9 -28 -27 -45 -41 -16 -14 -40 -41 -54
-60 -13 -19 -28 -38 -33 -41 -5 -3 -11 -25 -14 -49 l-6 -43 54 6 c29 4 74 17
99 30 53 27 108 33 158 16 30 -10 37 -9 48 6 7 9 17 14 23 10 6 -3 11 -2 11 3
0 6 -11 13 -24 16 -18 4 -24 14 -29 47 -5 36 -2 46 25 75 39 42 68 45 68 7 1
-51 37 -158 51 -154 31 8 84 9 98 2 11 -7 10 -11 -9 -21 -12 -7 -20 -7 -16 -2
7 11 -53 10 -72 -2 -6 -3 -13 -2 -17 4 -3 5 -15 10 -26 10 -10 0 -19 5 -19 10
0 6 -4 10 -10 10 -5 0 -10 -10 -10 -22 0 -19 6 -23 33 -25 17 0 55 -3 82 -5
29 -2 56 1 65 8 8 6 25 15 37 18 17 6 22 3 20 -12 0 -11 -6 -18 -12 -16 -11 5
-85 -62 -85 -77 0 -5 -6 -9 -13 -9 -7 0 -18 -5 -25 -12 -12 -12 -33 -16 -127
-22 -33 -2 -63 -4 -67 -5 -5 -1 -8 -11 -8 -23 0 -17 -3 -19 -9 -9 -5 8 -14 10
-21 6 -9 -6 -5 -12 14 -22 15 -8 30 -12 33 -9 3 2 14 -4 26 -15 21 -19 37 -21
167 -21 69 1 226 38 248 59 7 7 23 13 34 13 21 0 69 30 103 64 11 12 37 35 56
51 32 26 36 36 37 77 1 26 -6 64 -15 85 -18 40 -23 93 -10 93 4 0 7 -6 7 -13
0 -21 34 -47 60 -47 12 0 29 8 37 18 13 16 14 16 9 -3 -5 -16 1 -23 22 -31 42
-16 63 13 55 73 -5 37 -2 48 17 68 20 22 21 25 6 25 -12 0 -16 7 -14 23 2 13
10 22 20 22 27 0 35 16 15 30 -15 11 -16 19 -8 55 5 23 17 48 28 56 17 14 17
14 -4 5 -18 -9 -23 -8 -28 9 -9 27 -45 60 -66 60 -10 0 -19 11 -22 28 -4 15
-22 38 -42 52 -19 14 -38 35 -41 46 -4 14 -20 26 -47 35 -23 7 -53 21 -67 31
-14 10 -48 19 -78 21 -37 3 -56 9 -66 23 -13 16 -15 17 -21 3 -5 -14 -16 -14
-106 5 -87 17 -108 18 -158 8 -31 -7 -79 -12 -107 -13 -38 0 -45 -2 -29 -10
14 -6 -6 -8 -63 -5 -47 2 -80 0 -76 -5 3 -5 -5 -9 -16 -9 -19 0 -21 4 -16 25
8 30 6 30 -25 6z m728 -517 c-3 -4 -2 -16 4 -28 9 -19 9 -19 -4 -3 -8 9 -20
17 -26 17 -7 0 -9 5 -6 10 3 6 13 10 22 10 9 0 13 -3 10 -6z m71 -76 c14 -14
16 -42 2 -33 -14 9 -32 45 -22 45 4 0 13 -5 20 -12z m192 -48 c0 -11 -7 -20
-15 -20 -13 0 -13 3 -3 20 7 11 14 20 15 20 2 0 3 -9 3 -20z m-800 -62 c0 -16
-3 -19 -11 -11 -6 6 -8 16 -5 22 11 17 16 13 16 -11z m495 11 c-7 -11 -35 -12
-35 -1 0 4 9 8 20 9 11 1 18 -2 15 -8z"/>
<path d="M9053 17723 c9 -2 23 -2 30 0 6 3 -1 5 -18 5 -16 0 -22 -2 -12 -5z"/>
<path d="M8735 17560 c4 -6 11 -8 16 -5 14 9 11 15 -7 15 -8 0 -12 -5 -9 -10z"/>
<path d="M8795 17559 c-4 -6 -5 -12 -2 -15 2 -3 7 2 10 11 7 17 1 20 -8 4z"/>
<path d="M8160 17490 c0 -8 25 -20 41 -20 20 0 7 18 -16 22 -14 3 -25 2 -25
-2z"/>
<path d="M8750 17459 c0 -5 5 -7 10 -4 6 3 10 8 10 11 0 2 -4 4 -10 4 -5 0
-10 -5 -10 -11z"/>
<path d="M8729 17426 c16 -19 44 -21 39 -3 -3 6 -15 14 -28 15 -21 3 -22 2
-11 -12z"/>
<path d="M5803 17414 c-20 -9 -15 -42 7 -54 25 -13 73 14 68 39 -3 16 -50 25
-75 15z"/>
<path d="M5690 17380 c0 -5 9 -10 20 -10 11 0 20 5 20 10 0 6 -9 10 -20 10
-11 0 -20 -4 -20 -10z"/>
<path d="M10836 17005 c-19 -14 -19 -15 7 -15 17 0 27 5 27 15 0 19 -9 19 -34
0z"/>
<path d="M10886 16985 c-3 -9 0 -15 9 -15 9 0 12 6 9 15 -4 8 -7 15 -9 15 -2
0 -5 -7 -9 -15z"/>
<path d="M9370 16934 c0 -17 22 -14 28 4 2 7 -3 12 -12 12 -9 0 -16 -7 -16
-16z"/>
<path d="M9420 16930 c-9 -6 -10 -10 -3 -10 6 0 15 5 18 10 8 12 4 12 -15 0z"/>
<path d="M6744 16895 c22 -17 62 -20 70 -6 7 10 -27 21 -64 21 -24 -1 -24 -1
-6 -15z"/>
<path d="M9441 16644 c0 -11 3 -14 6 -6 3 7 2 16 -1 19 -3 4 -6 -2 -5 -13z"/>
<path d="M9475 16620 c-3 -5 -1 -10 4 -10 6 0 11 5 11 10 0 6 -2 10 -4 10 -3
0 -8 -4 -11 -10z"/>
<path d="M9275 16600 c3 -5 8 -10 11 -10 2 0 4 5 4 10 0 6 -5 10 -11 10 -5 0
-7 -4 -4 -10z"/>
<path d="M10712 16585 c-11 -12 -10 -15 3 -15 8 0 15 7 15 15 0 18 -2 18 -18
0z"/>
<path d="M10758 16553 c7 -3 16 -2 19 1 4 3 -2 6 -13 5 -11 0 -14 -3 -6 -6z"/>
<path d="M6835 16290 c3 -5 11 -10 16 -10 6 0 7 5 4 10 -3 6 -11 10 -16 10 -6
0 -7 -4 -4 -10z"/>
<path d="M9780 16260 c0 -5 5 -10 10 -10 6 0 10 5 10 10 0 6 -4 10 -10 10 -5
0 -10 -4 -10 -10z"/>
<path d="M9470 16250 c0 -5 7 -10 15 -10 8 0 15 5 15 10 0 6 -7 10 -15 10 -8
0 -15 -4 -15 -10z"/>
<path d="M9775 16220 c-3 -5 3 -10 15 -10 12 0 18 5 15 10 -3 6 -10 10 -15 10
-5 0 -12 -4 -15 -10z"/>
<path d="M6860 16190 c-9 -16 -8 -22 5 -26 10 -4 15 -19 15 -45 0 -27 4 -39
14 -39 22 0 28 17 11 33 -11 12 -12 17 -2 20 8 3 6 10 -8 20 -17 14 -18 19 -7
36 10 18 10 21 -3 21 -8 0 -19 -9 -25 -20z"/>
<path d="M6800 16186 c0 -9 5 -16 10 -16 6 0 10 4 10 9 0 6 -4 13 -10 16 -5 3
-10 -1 -10 -9z"/>
<path d="M6920 16160 c0 -5 5 -10 10 -10 6 0 10 5 10 10 0 6 -4 10 -10 10 -5
0 -10 -4 -10 -10z"/>
<path d="M14738 16129 c-11 -6 -18 -22 -18 -40 0 -22 8 -34 33 -49 17 -11 43
-20 56 -20 22 0 23 3 18 42 -4 27 -14 49 -27 60 -25 20 -38 22 -62 7z"/>
<path d="M9970 16115 c0 -8 5 -15 10 -15 6 0 10 7 10 15 0 8 -4 15 -10 15 -5
0 -10 -7 -10 -15z"/>
<path d="M6916 16064 c-5 -12 -2 -15 10 -10 8 3 18 6 20 6 3 0 2 5 -1 10 -9
15 -22 12 -29 -6z"/>
<path d="M7007 16010 c3 -19 9 -36 13 -38 4 -1 6 -19 4 -38 -2 -26 1 -34 11
-30 10 3 12 -5 8 -34 -5 -32 -1 -42 21 -61 31 -27 34 -65 6 -74 -23 -7 -27
-45 -5 -45 8 0 15 9 15 20 0 11 4 20 9 20 13 0 21 -27 15 -45 -4 -8 -2 -15 4
-15 6 0 12 6 15 13 6 20 34 -9 41 -43 5 -28 36 -44 36 -20 0 6 -4 10 -10 10
-5 0 -10 11 -10 24 0 29 -44 116 -67 134 -16 11 -16 12 0 12 16 0 15 3 -4 29
-14 19 -27 27 -40 24 -21 -6 -25 7 -8 24 11 11 2 63 -12 63 -5 0 -9 12 -9 28
0 15 -9 38 -20 52 l-20 25 7 -35z m110 -272 c-3 -8 -6 -5 -6 6 -1 11 2 17 5
13 3 -3 4 -12 1 -19z"/>
<path d="M8236 15974 c-8 -22 -8 -24 8 -24 12 0 26 20 26 36 0 12 -29 2 -34
-12z"/>
<path d="M10006 15975 c-19 -14 -18 -15 13 -15 21 0 31 4 29 12 -6 18 -21 19
-42 3z"/>
<path d="M6710 15930 c0 -5 5 -10 10 -10 6 0 10 5 10 10 0 6 -4 10 -10 10 -5
0 -10 -4 -10 -10z"/>
<path d="M10000 15915 c0 -11 7 -15 23 -13 12 2 22 8 22 13 0 6 -10 11 -22 13
-16 2 -23 -2 -23 -13z"/>
<path d="M7220 15860 c0 -5 7 -10 16 -10 8 0 12 5 9 10 -3 6 -10 10 -16 10 -5
0 -9 -4 -9 -10z"/>
<path d="M6619 15834 c-17 -21 -2 -32 58 -45 76 -15 223 -1 223 23 0 5 -6 8
-12 7 -7 -1 -29 5 -49 14 -44 20 -204 20 -220 1z"/>
<path d="M14617 15803 c-14 -13 -6 -48 19 -85 34 -49 43 -122 20 -166 -9 -17
-16 -43 -16 -57 0 -27 76 -183 111 -226 12 -15 32 -68 45 -118 35 -135 48
-153 78 -109 11 16 16 46 16 103 0 87 -5 101 -41 119 -26 13 -27 16 -32 186
-3 74 -7 92 -35 140 -17 30 -48 66 -69 80 -21 14 -39 35 -41 45 -4 28 -34 95
-42 95 -4 0 -10 -3 -13 -7z"/>
<path d="M6673 15743 c-25 -5 -32 -23 -9 -23 22 0 46 11 46 21 0 5 -3 8 -7 8
-5 -1 -18 -4 -30 -6z"/>
<path d="M8017 15584 c-8 -8 1 -24 14 -24 5 0 9 7 9 15 0 15 -12 20 -23 9z"/>
<path d="M7097 15564 c-42 -13 -46 -17 -37 -34 11 -20 65 -25 88 -7 8 6 16 6
25 0 6 -6 19 -10 27 -10 8 -1 24 -4 35 -9 15 -6 13 -1 -8 18 -15 14 -26 32
-25 39 4 18 -48 20 -105 3z m73 -9 c0 -8 -4 -15 -10 -15 -5 0 -10 7 -10 15 0
8 5 15 10 15 6 0 10 -7 10 -15z"/>
<path d="M7270 15500 c0 -6 7 -10 15 -10 8 0 15 2 15 4 0 2 -7 6 -15 10 -8 3
-15 1 -15 -4z"/>
<path d="M7318 15494 c6 -3 10 -10 7 -15 -3 -4 7 -11 22 -15 15 -3 36 -8 46
-11 9 -2 17 0 17 5 0 18 -28 33 -67 37 -21 2 -32 1 -25 -1z"/>
<path d="M8138 15383 c7 -3 16 -2 19 1 4 3 -2 6 -13 5 -11 0 -14 -3 -6 -6z"/>
<path d="M8560 15160 c0 -5 5 -10 11 -10 5 0 7 5 4 10 -3 6 -8 10 -11 10 -2 0
-4 -4 -4 -10z"/>
<path d="M8560 15100 c0 -5 5 -10 11 -10 5 0 7 5 4 10 -3 6 -8 10 -11 10 -2 0
-4 -4 -4 -10z"/>
<path d="M9872 15018 c-14 -14 -16 -88 -3 -88 7 0 22 88 16 97 -1 2 -7 -3 -13
-9z"/>
<path d="M9820 14956 c0 -8 5 -18 10 -21 6 -3 10 3 10 14 0 12 -4 21 -10 21
-5 0 -10 -6 -10 -14z"/>
<path d="M14645 14878 c-7 -18 11 -67 32 -90 25 -28 67 -23 97 13 14 17 26 41
26 55 0 23 -3 24 -59 24 -33 0 -66 3 -75 6 -9 3 -18 0 -21 -8z"/>
<path d="M7829 14853 c-9 -10 -6 -13 15 -13 15 0 26 6 26 13 0 8 -7 14 -15 14
-8 0 -20 -6 -26 -14z"/>
<path d="M8730 14841 c0 -6 5 -13 10 -16 6 -3 10 1 10 9 0 9 -4 16 -10 16 -5
0 -10 -4 -10 -9z"/>
<path d="M9836 14785 c-3 -8 -1 -15 4 -15 6 0 10 7 10 15 0 8 -2 15 -4 15 -2
0 -6 -7 -10 -15z"/>
<path d="M11949 14754 c-16 -19 -15 -185 2 -313 5 -42 6 -89 3 -106 -4 -22 -1
-35 11 -45 15 -12 19 -12 31 5 8 11 11 26 7 35 -10 20 -6 105 7 149 18 63 24
226 10 260 -14 35 -48 42 -71 15z"/>
<path d="M7990 14740 c0 -5 5 -10 10 -10 6 0 10 5 10 10 0 6 -4 10 -10 10 -5
0 -10 -4 -10 -10z"/>
<path d="M8990 14703 c0 -10 4 -14 8 -8 4 6 11 13 16 18 5 4 2 7 -7 7 -10 0
-17 -8 -17 -17z"/>
<path d="M14655 14573 c-16 -9 -37 -19 -45 -23 -16 -7 -28 -89 -13 -91 19 -2
60 -9 91 -15 42 -8 62 9 62 52 0 31 3 34 29 34 21 0 32 6 36 21 4 13 2 25 -5
29 -23 14 -124 10 -155 -7z"/>
<path d="M8160 14554 c0 -8 5 -12 10 -9 6 4 8 11 5 16 -9 14 -15 11 -15 -7z"/>
<path d="M9398 14518 c9 -9 15 -9 24 0 9 9 7 12 -12 12 -19 0 -21 -3 -12 -12z"/>
<path d="M8265 14460 c-3 -5 -1 -10 4 -10 6 0 11 5 11 10 0 6 -2 10 -4 10 -3
0 -8 -4 -11 -10z"/>
<path d="M8953 14325 c-3 -9 -3 -18 -1 -21 3 -3 8 4 11 16 6 23 -1 27 -10 5z"/>
<path d="M8775 14250 c3 -5 10 -10 16 -10 5 0 9 5 9 10 0 6 -7 10 -16 10 -8 0
-12 -4 -9 -10z"/>
<path d="M14643 14215 c-28 -20 -38 -68 -23 -106 l13 -30 101 3 101 3 0 56 c0
79 -12 89 -99 89 -47 0 -79 -5 -93 -15z"/>
<path d="M6076 13508 c-16 -39 -27 -285 -18 -373 6 -55 9 -60 32 -63 18 -2 41
11 80 43 115 95 113 93 105 122 -4 16 -9 54 -12 86 -5 55 -8 62 -57 111 -29
29 -61 64 -71 79 -23 36 -43 34 -59 -5z"/>
<path d="M2440 12430 c0 -5 7 -10 15 -10 8 0 15 5 15 10 0 6 -7 10 -15 10 -8
0 -15 -4 -15 -10z"/>
<path d="M4446 12408 c-31 -44 -12 -118 30 -118 54 0 71 58 33 111 -24 35 -42
37 -63 7z"/>
<path d="M4580 12230 c-19 -45 -56 -70 -104 -70 -63 0 -82 -19 -100 -100 -14
-62 -15 -78 -2 -138 10 -49 13 -115 10 -233 -4 -161 -5 -165 -34 -212 -45 -72
-46 -87 -12 -164 17 -37 34 -78 37 -90 9 -33 62 -43 209 -38 170 5 233 14 278
36 52 26 62 50 53 123 -4 34 -7 84 -6 111 1 28 4 184 7 348 l5 297 -25 25
c-22 22 -34 25 -96 25 l-70 0 -60 55 c-33 30 -64 55 -69 55 -5 0 -14 -14 -21
-30z"/>
<path d="M7110 12028 c-83 -8 -119 -25 -106 -47 11 -17 128 -13 171 5 21 8 54
14 74 13 61 -3 81 0 81 15 0 28 -56 32 -220 14z"/>
<path d="M1624 6259 c-11 -13 -42 -56 -67 -95 -76 -116 -81 -149 -24 -159 63
-10 385 -1 398 12 18 18 2 60 -41 103 -22 22 -40 46 -40 54 0 8 -7 17 -16 20
-9 3 -14 12 -11 20 12 30 -29 49 -133 62 -39 5 -48 3 -66 -17z"/>
<path d="M146 3230 c-76 -5 -140 -11 -142 -13 -3 -2 -3 -77 -2 -166 l3 -161
40 21 c22 12 59 32 82 44 23 13 54 32 69 44 15 12 39 21 55 21 15 0 40 10 56
23 15 12 53 39 84 59 47 31 58 43 63 74 5 23 3 41 -4 48 -14 14 -128 16 -304
6z"/>
<path d="M5940 3075 c0 -8 2 -15 4 -15 2 0 6 7 10 15 3 8 1 15 -4 15 -6 0 -10
-7 -10 -15z"/>
<path d="M5962 3040 c0 -14 2 -19 5 -12 2 6 2 18 0 25 -3 6 -5 1 -5 -13z"/>
<path d="M5936 3003 c9 -36 12 -39 25 -26 8 8 7 17 -3 32 -18 29 -30 26 -22
-6z"/>
<path d="M5890 2970 c0 -5 7 -10 15 -10 8 0 15 5 15 10 0 6 -7 10 -15 10 -8 0
-15 -4 -15 -10z"/>
<path d="M14495 2150 c-8 -13 -1 -24 14 -19 6 3 7 10 2 18 -6 10 -10 10 -16 1z"/>
<path d="M14310 1986 c0 -8 4 -17 9 -20 5 -3 7 -27 5 -53 l-4 -48 16 50 c11
34 12 51 5 53 -6 2 -11 10 -11 18 0 8 -4 14 -10 14 -5 0 -10 -6 -10 -14z"/>
<path d="M14290 1859 c0 -5 5 -7 10 -4 6 3 10 8 10 11 0 2 -4 4 -10 4 -5 0
-10 -5 -10 -11z"/>
<path d="M15940 1800 c0 -5 4 -10 9 -10 6 0 13 5 16 10 3 6 -1 10 -9 10 -9 0
-16 -4 -16 -10z"/>
<path d="M5507 1733 c-3 -5 -1 -17 4 -28 7 -17 8 -17 8 8 1 27 -4 34 -12 20z"/>
<path d="M5455 1670 c-8 -13 -1 -24 14 -19 6 3 7 10 2 18 -6 10 -10 10 -16 1z"/>
<path d="M18173 1563 c-18 -9 -33 -23 -33 -30 0 -7 -7 -13 -15 -13 -18 0 -19
-12 -3 -28 10 -10 8 -19 -5 -42 -20 -34 -16 -47 20 -61 18 -7 23 -14 18 -28
-3 -11 -1 -22 5 -26 5 -3 10 -22 10 -41 0 -23 9 -44 27 -64 37 -42 57 -40 50
6 -4 25 -2 34 6 31 12 -4 29 -57 29 -94 0 -15 7 -23 22 -25 13 -2 21 -10 21
-23 0 -38 12 -44 81 -39 63 5 65 4 59 -16 -4 -11 -2 -20 4 -20 20 0 12 -32 -9
-37 -36 -10 -21 -23 26 -23 38 0 45 -3 42 -17 -2 -10 -13 -19 -26 -21 -46 -7
-14 -42 39 -42 42 0 64 -20 54 -49 -7 -25 26 -61 56 -61 36 0 15 -25 -24 -28
-37 -3 -53 -22 -18 -22 10 0 25 -10 34 -22 12 -19 18 -21 28 -10 17 16 49 15
49 -1 0 -8 -9 -22 -20 -32 -21 -19 -27 -69 -10 -80 12 -7 60 5 60 15 0 4 -9
10 -20 13 -33 9 -25 37 11 37 28 0 31 -2 25 -24 -3 -14 -2 -27 3 -30 14 -9 41
4 41 20 0 9 11 14 30 14 20 0 30 -5 30 -15 0 -8 3 -16 8 -16 36 -6 281 -3 295
3 30 15 19 45 -27 77 -24 17 -96 86 -160 153 -127 134 -531 525 -584 566 -28
21 -35 23 -43 11 -7 -11 -12 -12 -26 -1 -10 7 -33 19 -50 27 -39 18 -43 35 -8
35 14 0 25 6 25 13 0 14 -47 67 -60 67 -4 0 -14 2 -22 4 -7 3 -28 -3 -45 -11z
m61 -130 c10 -24 -7 -35 -37 -24 -33 13 -35 28 -4 34 12 2 25 5 28 6 4 0 10
-7 13 -16z m22 -68 c4 -8 15 -15 25 -15 24 0 24 -12 0 -27 -11 -7 -34 -10 -55
-6 -41 6 -40 4 -24 38 12 27 45 34 54 10z"/>
<path d="M17960 1520 c0 -5 11 -10 25 -10 14 0 25 5 25 10 0 6 -11 10 -25 10
-14 0 -25 -4 -25 -10z"/>
<path d="M15868 1493 c7 -3 16 -2 19 1 4 3 -2 6 -13 5 -11 0 -14 -3 -6 -6z"/>
<path d="M18050 1470 c0 -5 7 -10 15 -10 8 0 15 5 15 10 0 6 -7 10 -15 10 -8
0 -15 -4 -15 -10z"/>
<path d="M14278 1333 c7 -3 16 -2 19 1 4 3 -2 6 -13 5 -11 0 -14 -3 -6 -6z"/>
<path d="M5439 1328 c-7 -17 -6 -78 2 -78 5 0 9 18 9 40 0 32 -6 51 -11 38z"/>
<path d="M15875 1240 c3 -5 8 -10 11 -10 2 0 4 5 4 10 0 6 -5 10 -11 10 -5 0
-7 -4 -4 -10z"/>
<path d="M18230 1160 c0 -5 7 -10 15 -10 8 0 15 5 15 10 0 6 -7 10 -15 10 -8
0 -15 -4 -15 -10z"/>
<path d="M18370 986 c0 -15 18 -31 26 -23 7 7 -7 37 -17 37 -5 0 -9 -6 -9 -14z"/>
<path d="M14165 940 c-3 -5 -1 -10 4 -10 6 0 11 5 11 10 0 6 -2 10 -4 10 -3 0
-8 -4 -11 -10z"/>
<path d="M15865 920 c4 -6 11 -8 16 -5 14 9 11 15 -7 15 -8 0 -12 -5 -9 -10z"/>
<path d="M15870 881 c0 -17 25 -30 40 -20 13 8 13 10 0 19 -19 12 -40 13 -40
1z"/>
<path d="M18530 880 c0 -5 5 -10 10 -10 6 0 10 5 10 10 0 6 -4 10 -10 10 -5 0
-10 -4 -10 -10z"/>
<path d="M18450 830 c-24 -20 -24 -21 -6 -35 15 -12 17 -17 7 -29 -17 -20 -4
-38 20 -31 11 4 27 1 35 -6 12 -10 18 -8 34 9 11 12 20 24 20 27 0 11 -28 5
-33 -7 -3 -10 -8 -10 -21 1 -10 8 -14 21 -11 32 4 13 1 19 -9 19 -9 0 -16 5
-16 10 0 6 5 10 10 10 6 0 10 5 10 10 0 15 -12 12 -40 -10z"/>
<path d="M18540 820 c0 -5 7 -10 15 -10 8 0 15 5 15 10 0 6 -7 10 -15 10 -8 0
-15 -4 -15 -10z"/>
<path d="M15840 515 c0 -8 2 -15 4 -15 2 0 6 7 10 15 3 8 1 15 -4 15 -6 0 -10
-7 -10 -15z"/>
<path d="M15890 305 c0 -8 5 -15 10 -15 6 0 10 7 10 15 0 8 -4 15 -10 15 -5 0
-10 -7 -10 -15z"/>
<path d="M14071 64 c0 -11 3 -14 6 -6 3 7 2 16 -1 19 -3 4 -6 -2 -5 -13z"/>
<path d="M15892 25 c0 -17 2 -22 5 -12 2 9 2 23 0 30 -3 6 -5 -1 -5 -18z"/>
</g>
</svg>
